<svg width="101" height="100" viewBox="0 0 101 100" fill="none" xmlns="http://www.w3.org/2000/svg">
<g clip-path="url(#clip0_18_60)">
<path d="M35.2178 23.4807C34.9305 24.3648 35.2133 25.3125 35.9379 25.8951L42.3901 31.0811L40.2184 39.0691C39.9747 39.966 40.303 40.8988 41.0555 41.4461C41.8083 41.9922 42.7963 42.0162 43.5743 41.5072L50.5002 36.9734L57.4264 41.5074C57.7998 41.7518 58.2215 41.8732 58.6424 41.8732C59.0987 41.8732 59.554 41.7305 59.9448 41.4461C60.6977 40.8994 61.0262 39.966 60.7819 39.0691L58.6102 31.0813L65.062 25.8955C65.7872 25.3131 66.07 24.3652 65.7825 23.4807C65.4952 22.5959 64.7092 21.9953 63.7805 21.9504L55.5124 21.5473L52.5741 13.8086C52.2442 12.9393 51.4299 12.3773 50.5 12.3773C49.5702 12.3773 48.7559 12.9391 48.4262 13.8084L45.4877 21.5475L37.2202 21.9504C36.2911 21.9953 35.5051 22.5959 35.2178 23.4807ZM46.2327 24.6397C47.1139 24.5967 47.8856 24.0359 48.1983 23.2113L50.4999 17.1498L52.8014 23.2119C53.1147 24.0363 53.8866 24.5967 54.767 24.6397L61.243 24.9555L56.1891 29.0174C55.5014 29.5703 55.2069 30.4775 55.4383 31.3283L57.1393 37.585L51.7143 34.0336C51.3454 33.7922 50.9225 33.6715 50.4997 33.6715C50.0768 33.6715 49.6536 33.7924 49.2844 34.0338L43.8598 37.585L45.5608 31.3287C45.7924 30.4773 45.4977 29.5699 44.8098 29.0174L39.7561 24.9557L46.2327 24.6397ZM48.9374 7.29649V1.5625C48.9374 0.699609 49.637 0 50.4999 0C51.3627 0 52.0624 0.699609 52.0624 1.5625V7.29649C52.0624 8.15938 51.3627 8.85898 50.4999 8.85898C49.637 8.85898 48.9374 8.15938 48.9374 7.29649ZM58.4528 16.5539C57.8754 15.9127 57.9272 14.9246 58.5684 14.3473L64.9581 8.59375C65.5995 8.01621 66.5873 8.06797 67.1649 8.70938C67.7422 9.35059 67.6905 10.3387 67.0493 10.916L60.6594 16.6695C60.3608 16.9385 59.987 17.0709 59.6143 17.0709C59.1872 17.0709 58.7614 16.8967 58.4528 16.5539ZM33.8348 8.70938C34.4122 8.06797 35.4001 8.01621 36.0417 8.59375L42.4315 14.3473C43.0727 14.9246 43.1245 15.9127 42.5471 16.5539C42.2385 16.8965 41.8127 17.0709 41.3854 17.0709C41.0129 17.0709 40.6391 16.9385 40.3403 16.6695L33.9504 10.916C33.309 10.3387 33.2575 9.35059 33.8348 8.70938ZM70.5456 25.8951L76.9977 31.0811L74.826 39.0691C74.5823 39.966 74.9106 40.8988 75.6631 41.4461C76.4153 41.9922 77.4036 42.016 78.1819 41.5072L85.1079 36.9734L92.034 41.5074C92.4075 41.7518 92.8291 41.8732 93.25 41.8732C93.7063 41.8732 94.1616 41.7305 94.5524 41.4461C95.3049 40.8998 95.6334 39.9668 95.3895 39.0691L93.2178 31.0813L99.6696 25.8955C100.395 25.3133 100.677 24.3654 100.39 23.4807C100.103 22.5959 99.3166 21.9953 98.3881 21.9504L90.12 21.5473L87.1819 13.8086C86.852 12.9393 86.0377 12.3773 85.1079 12.3773C84.1778 12.3773 83.3635 12.9391 83.0336 13.8084L80.0956 21.5473L71.828 21.9502C70.8987 21.9951 70.1127 22.5959 69.8254 23.4807C69.5379 24.3652 69.8207 25.3131 70.5456 25.8951ZM80.8401 24.6397C81.7215 24.5967 82.4934 24.0359 82.8063 23.2111L85.1077 17.1496L87.4088 23.2109C87.7219 24.0359 88.4938 24.5967 89.3748 24.6395L95.8508 24.9553L90.7975 29.0168C90.1094 29.5695 89.8145 30.477 90.0461 31.3281L91.7471 37.5848L86.3221 34.0334C85.953 33.792 85.5301 33.6713 85.1073 33.6713C84.6842 33.6713 84.2612 33.7922 83.8922 34.0336L78.4676 37.5848L80.1686 31.3285C80.4 30.4775 80.1055 29.5703 79.4176 29.0172L74.3639 24.9553L80.8401 24.6397ZM1.32993 25.8951L7.78208 31.0811L5.6104 39.0691C5.36665 39.966 5.69497 40.8988 6.44751 41.4461C7.20025 41.9922 8.18833 42.0162 8.96626 41.5072L15.8922 36.9734L22.8184 41.5074C23.1918 41.7518 23.6135 41.8732 24.0344 41.8732C24.4907 41.8732 24.9459 41.7305 25.3368 41.4461C26.0893 40.8998 26.4178 39.9668 26.1739 39.0691L24.0022 31.0813L30.454 25.8955C31.1786 25.3137 31.4616 24.366 31.1743 23.4797C30.8864 22.5955 30.1004 21.9951 29.1725 21.9502L20.9043 21.5471L17.9663 13.8086C17.6364 12.9393 16.8221 12.3773 15.8922 12.3773C14.9622 12.3773 14.1479 12.9391 13.818 13.8084L10.8799 21.5473L2.61236 21.9502C1.68326 21.9951 0.897318 22.5959 0.610208 23.4797C0.322122 24.3647 0.60474 25.3129 1.32993 25.8951ZM11.6245 24.6397C12.5059 24.5967 13.2778 24.0359 13.5907 23.2111L15.892 17.1496L18.1932 23.2109C18.5063 24.0359 19.2782 24.5967 20.1592 24.6395L26.6352 24.9553L21.5819 29.0168C20.8938 29.5695 20.5989 30.477 20.8305 31.3281L22.5315 37.5848L17.1065 34.0334C16.7374 33.792 16.3145 33.6713 15.8917 33.6713C15.4686 33.6713 15.0456 33.7922 14.6766 34.0336L9.252 37.5848L10.953 31.3285C11.1844 30.4775 10.8899 29.5703 10.202 29.0172L5.14829 24.9553L11.6245 24.6397ZM100.254 82.9947C99.1545 79.4443 96.9028 76.2565 93.9131 74.0178C92.4819 72.9461 90.9233 72.1113 89.2791 71.5203C91.5586 69.7313 93.0274 66.9539 93.0274 63.8381C93.0274 58.4541 88.6471 54.074 83.2633 54.074C77.8793 54.074 73.4991 58.4541 73.4991 63.8381C73.4991 66.9502 74.9643 69.7248 77.2393 71.5141C74.1903 72.6023 71.4891 74.5145 69.4205 77.091C68.4538 75.7385 67.3385 74.4822 66.0848 73.3484C63.5586 71.0639 60.594 69.3861 57.4012 68.3945C60.787 66.15 63.0252 62.3068 63.0252 57.9492C63.0252 51.043 57.4063 45.4242 50.5 45.4242C43.5938 45.4242 37.9749 51.043 37.9749 57.9492C37.9749 62.3068 40.2129 66.15 43.5987 68.3945C40.4057 69.3859 37.4411 71.0639 34.9149 73.3484C33.6612 74.4822 32.5459 75.7385 31.5793 77.0908C29.511 74.5141 26.8098 72.602 23.7606 71.5135C26.0354 69.7242 27.5008 66.9496 27.5008 63.8375C27.5008 58.4535 23.1206 54.0734 17.7368 54.0734C12.3528 54.0734 7.97251 58.4535 7.97251 63.8375C7.97251 66.9531 9.44126 69.7307 11.7206 71.5197C10.0764 72.1107 8.51783 72.9455 7.08638 74.0172C4.09673 76.2557 1.84497 79.4438 0.74556 82.9939C0.237552 84.6338 0.518997 86.2981 1.53794 87.6805C2.55669 89.0625 4.06333 89.8234 5.78013 89.8234H27.3803V92.6434C27.3803 96.7 30.6805 100 34.7372 100H66.2625C70.319 100 73.6194 96.7 73.6196 92.6434V89.8242H95.2196C96.9366 89.8242 98.4432 89.0631 99.4618 87.6813C100.481 86.2988 100.762 84.6344 100.254 82.9947ZM83.2633 57.199C86.9241 57.199 89.9024 60.1773 89.9024 63.8381C89.9024 67.499 86.9241 70.4773 83.2633 70.4773C79.6024 70.4773 76.6241 67.499 76.6241 63.8381C76.6241 60.1773 79.6024 57.199 83.2633 57.199ZM41.0999 57.9492C41.0999 52.766 45.3168 48.5492 50.5 48.5492C55.6833 48.5492 59.9002 52.766 59.9002 57.9492C59.9002 63.1309 55.686 67.3465 50.5051 67.3492C50.5034 67.3492 50.5014 67.3492 50.4999 67.3492C50.4983 67.3492 50.4965 67.3492 50.4948 67.3492C45.3139 67.3463 41.0999 63.1307 41.0999 57.9492ZM17.7368 57.1982C21.3975 57.1982 24.3758 60.1766 24.3758 63.8373C24.3758 67.4982 21.3975 70.4766 17.7368 70.4766C14.0758 70.4766 11.0975 67.4982 11.0975 63.8373C11.0975 60.1766 14.0758 57.1982 17.7368 57.1982ZM27.5833 86.6982H5.78032C5.06118 86.6982 4.48033 86.4049 4.05357 85.826C3.62661 85.2471 3.51822 84.6053 3.73091 83.9184C5.64185 77.7475 11.2706 73.6016 17.7368 73.6016C22.628 73.6016 27.0836 75.9649 29.8241 79.9654C28.7407 82.0701 27.9819 84.3387 27.5833 86.6982ZM70.4946 92.6432C70.4944 94.9766 68.5959 96.875 66.2625 96.875H34.7372C32.4038 96.875 30.5053 94.9766 30.5053 92.6432V88.3457C31.6366 78.1527 40.2155 70.4768 50.4948 70.4742C50.4965 70.4742 50.4983 70.4744 50.5 70.4744C50.5018 70.4744 50.5036 70.4742 50.5051 70.4742C60.7842 70.477 69.3629 78.1527 70.4946 88.3457V92.6432ZM96.9463 85.827C96.5196 86.4057 95.9389 86.699 95.2196 86.699H73.4168C73.018 84.3393 72.2592 82.0707 71.176 79.9658C73.9166 75.9654 78.3721 73.6023 83.2631 73.6023C89.7293 73.6023 95.3581 77.7484 97.269 83.9193C97.4817 84.6059 97.3731 85.2477 96.9463 85.827Z" fill="#EA7B14"/>
</g>
<defs>
<clipPath id="clip0_18_60">
<rect width="100" height="100" fill="white" transform="translate(0.5)"/>
</clipPath>
</defs>
</svg>
