<svg width="101" height="100" viewBox="0 0 101 100" fill="none" xmlns="http://www.w3.org/2000/svg">
<g clip-path="url(#clip0_90_65)">
<path d="M0.816368 9.17325L7.48557 20.8437C7.71053 21.238 8.08706 21.5233 8.52737 21.6338L14.7494 23.1893L36.0896 44.5295L38.4476 42.1722L16.7733 20.4987C16.56 20.2847 16.2926 20.1331 15.9997 20.0597L10.0212 18.5598L4.34301 8.61772L9.21117 3.74956L19.1574 9.43319L20.658 15.4117C20.7307 15.7053 20.883 15.9735 21.0963 16.1868L42.7705 37.861L45.1277 35.503L23.7875 14.1628L22.232 7.94421C22.1216 7.50321 21.8363 7.12599 21.4419 6.90035L9.77082 0.231833C9.11995 -0.138525 8.30104 -0.0287894 7.7702 0.5L1.10168 7.1692C0.565347 7.69662 0.448752 8.5169 0.816368 9.17325Z" fill="#EA7B14"/>
<path d="M70.1318 32.8584L33.4532 69.5376L31.0953 67.1796L67.7745 30.5011L70.1318 32.8584Z" fill="#EA7B14"/>
<path d="M27.0337 70.8352C26.7319 70.3332 26.1901 70.0266 25.6043 70.0266H15.6012C15.0162 70.0266 14.4737 70.3332 14.1726 70.8352L9.1707 79.171C8.85315 79.6991 8.85315 80.3596 9.1707 80.8884L14.1726 89.2242C14.4737 89.7256 15.0162 90.0328 15.6012 90.0328H25.6043C26.1901 90.0328 26.7319 89.7256 27.0337 89.2242L32.0349 80.8884C32.3524 80.3596 32.3524 79.6991 32.0349 79.171L27.0337 70.8352ZM24.6613 86.6982H16.545L12.5437 80.0297L16.545 73.3605H24.6613L28.6625 80.0297L24.6613 86.6982Z" fill="#EA7B14"/>
<path d="M80.6225 40.0165C91.6338 40.0536 100.591 31.1567 100.628 20.1454C100.634 18.4692 100.428 16.7998 100.016 15.1751C99.7934 14.2814 98.8887 13.7375 97.9951 13.9597C97.7015 14.0331 97.4341 14.1847 97.2201 14.398L86.8418 24.7694L78.6075 22.0253L75.8613 13.7931L86.2396 3.41275C86.8905 2.76119 86.8898 1.70567 86.2382 1.0548C86.0236 0.840127 85.7533 0.687869 85.4577 0.615169C74.7791 -2.08914 63.931 4.375 61.2267 15.053C60.8159 16.673 60.6108 18.3382 60.6163 20.0096C60.6204 21.3223 60.7555 22.6309 61.0216 23.9162L24.509 60.4281C23.2238 60.1627 21.9152 60.0276 20.6031 60.0228C9.55341 60.0228 0.596214 68.98 0.596214 80.0297C0.596214 91.0787 9.55341 100.036 20.6031 100.036C31.6522 100.036 40.6094 91.0787 40.6094 80.0297C40.6052 78.717 40.4694 77.4084 40.204 76.1231L48.9452 67.3819L52.7681 71.2049C53.4197 71.8557 54.4745 71.8557 55.1261 71.2049L55.9594 70.3709C56.6905 69.6446 57.8722 69.6446 58.6033 70.3709C59.3337 71.0992 59.3351 72.2816 58.6067 73.0121C58.6061 73.0128 58.6047 73.0141 58.6033 73.0155L57.77 73.8488C57.1191 74.4997 57.1191 75.5552 57.77 76.2061L77.6583 96.0943C82.8892 101.373 91.4089 101.412 96.6878 96.1807C101.966 90.9498 102.005 82.4295 96.7736 77.1512C96.7455 77.1224 96.7167 77.0936 96.6878 77.0648L76.7996 57.1772C76.1487 56.5263 75.0932 56.5263 74.4423 57.1772L73.609 58.0105C72.8772 58.7375 71.6962 58.7375 70.9644 58.0105C70.2346 57.2821 70.2326 56.0997 70.9609 55.37C70.9623 55.3686 70.9637 55.3679 70.9644 55.3665L71.7984 54.5325C72.4492 53.8817 72.4492 52.8261 71.7984 52.1753L67.9754 48.3524L76.7166 39.6112C78.0019 39.8766 79.3105 40.0124 80.6225 40.0165ZM87.1731 96.702C85.9618 96.6999 84.7609 96.4812 83.6272 96.0552L96.6481 83.0337C98.613 88.2606 95.9691 94.0903 90.7422 96.0552C89.6016 96.4839 88.3925 96.7034 87.1731 96.702ZM68.2854 53.3707C66.4391 55.573 66.7286 58.8555 68.9308 60.7011C70.8663 62.3231 73.6872 62.3217 75.6206 60.6963L94.3306 79.4227C94.5336 79.6264 94.7236 79.8411 94.9074 80.0592L80.6527 94.3139C80.4339 94.1307 80.2192 93.9408 80.0155 93.7371L61.2912 75.0113C63.1375 72.8091 62.848 69.5266 60.6458 67.681C58.7103 66.0582 55.8887 66.0603 53.9553 67.6851L51.288 65.0178L65.6175 50.7096L68.2854 53.3707ZM75.0177 36.6024L37.1966 74.416C36.7816 74.8303 36.615 75.4317 36.7563 76.0003C39.0436 84.9829 33.6158 94.1191 24.6325 96.4057C15.6499 98.693 6.51372 93.2652 4.22642 84.282C1.93979 75.2994 7.36761 66.1632 16.3509 63.8759C19.0682 63.1845 21.9152 63.1845 24.6325 63.8759C25.2011 64.0151 25.8012 63.8484 26.2168 63.4362L64.0291 25.6219C64.4433 25.2077 64.61 24.6062 64.4673 24.0383C62.1958 15.1607 67.5509 6.12254 76.4285 3.85032C78.1061 3.42166 79.8413 3.25706 81.5697 3.36474L72.775 12.1628C72.3285 12.6086 72.1722 13.2691 72.3717 13.8678L75.7057 23.8716C75.8723 24.3689 76.2632 24.7598 76.7612 24.9251L86.765 28.2597C87.363 28.4593 88.0235 28.3036 88.47 27.8578L97.2646 19.0631C97.2845 19.3814 97.2948 19.6962 97.2948 20.0096C97.3415 29.1705 89.9535 36.6346 80.7926 36.6819C79.3763 36.6888 77.9648 36.5146 76.5931 36.1634C76.0246 36.0215 75.4231 36.1874 75.0088 36.6017H75.0177V36.6024Z" fill="#EA7B14"/>
<path d="M86.8048 83.8519L84.4468 86.2099L67.7752 69.5382L70.1324 67.1803L86.8048 83.8519Z" fill="#EA7B14"/>
</g>
<defs>
<clipPath id="clip0_90_65">
<rect width="100" height="100" fill="white" transform="translate(0.5)"/>
</clipPath>
</defs>
</svg>
