<svg width="101" height="100" viewBox="0 0 101 100" fill="none" xmlns="http://www.w3.org/2000/svg">
<g clip-path="url(#clip0_21_121)">
<path fill-rule="evenodd" clip-rule="evenodd" d="M94.1617 87.725H96.772C97.8507 87.725 98.7252 88.5994 98.725 89.6783V98.0471C98.725 99.1258 97.8504 100 96.7718 100H50.7697C50.7621 100 50.7546 99.9996 50.7471 99.9991C50.7408 99.9986 50.7346 99.9981 50.7283 99.998C50.6523 99.999 50.5765 99.9998 50.4998 99.9998C40.6882 99.9998 31.1867 97.1557 23.022 91.7746C16.629 87.0968 12.7238 82.7137 9.70056 78.9088C3.68142 70.4289 0.499969 60.4324 0.499969 50C0.499969 36.6447 5.70095 24.0887 15.1447 14.6447C24.5886 5.20098 37.1447 0 50.4998 0C63.8548 0 76.4109 5.20098 85.8549 14.6447C95.2986 24.0887 100.5 36.6447 100.5 49.9998C100.5 60.5813 97.1382 70.8602 90.9681 79.3627H92.2086C93.2871 79.3627 94.1617 80.2371 94.1617 81.3158V87.725ZM12.8857 76.6479C7.33845 68.8322 4.40622 59.6176 4.40622 50C4.40622 37.6883 9.20095 26.1131 17.907 17.407C26.6131 8.70098 38.1881 3.90625 50.4998 3.90625C62.8115 3.90625 74.3865 8.70098 83.0925 17.407C91.7986 26.1131 96.5933 37.6883 96.5933 50C96.5933 60.7272 92.8494 71.1182 86.032 79.3629H81.4039V75.6631C87.3849 68.4664 90.6714 59.3834 90.6714 50C90.6714 27.8494 72.6506 9.82852 50.4998 9.82852C28.349 9.82852 10.3281 27.8492 10.3281 50C10.3281 59.9981 14.0248 69.5797 20.7369 76.9797C27.0041 83.8893 35.4086 88.3754 44.5589 89.734C44.5888 90.7867 45.4496 91.6313 46.5093 91.6313H48.8168V96.0631C40.3707 95.7586 32.2289 93.1639 25.1716 88.5129C22.947 87.0964 17.3752 82.7403 12.8857 76.6479ZM90.2554 83.269V87.725H73.7621V83.269H90.2554ZM74.1164 96.0938H52.7232V91.6313H74.1164V96.0938ZM56.1047 74.9133H77.4972V74.95V79.3629H71.8088H56.1047V74.9133ZM23.6302 74.3553C18.0099 68.1588 14.7338 60.2674 14.2886 51.9531H17.4959C18.5744 51.9531 19.449 51.0787 19.449 50C19.449 48.9213 18.5744 48.0469 17.4959 48.0469H14.2875C15.2713 29.6016 30.1015 14.7713 48.5468 13.7877V16.9961C48.5468 18.0748 49.4215 18.9492 50.5 18.9492C51.5785 18.9492 52.4531 18.0748 52.4531 16.9961V13.7877C70.8984 14.7715 85.7285 29.6016 86.7121 48.0469H83.5037C82.4252 48.0469 81.5506 48.9213 81.5506 50C81.5506 51.0787 82.4252 51.9531 83.5037 51.9531H86.7111C86.3392 58.8488 84.0074 65.4891 80.0058 71.0865C79.8291 71.0342 79.6347 71.0064 79.4504 71.0064H54.1515C53.6121 71.0064 53.1238 71.2252 52.7703 71.5787C52.4166 71.9322 52.1978 72.4205 52.1978 72.9602V79.3629H46.5091C45.4306 79.3629 44.556 80.2373 44.556 81.316V85.7807C36.5222 84.4545 29.1568 80.4482 23.6302 74.3553ZM48.4623 83.269H54.1509H69.8556V87.725H50.7699H48.4623V83.269ZM94.8189 96.0938H78.0226V91.6313H94.8189V96.0938ZM57.0447 50C57.0447 53.6086 54.109 56.5445 50.5002 56.5445C49.8041 56.5445 49.1336 56.4342 48.5037 56.232L41.991 65.4941C41.6109 66.035 41.0062 66.324 40.3918 66.324C40.0037 66.324 39.6117 66.2086 39.2701 65.9684C38.3877 65.3479 38.1754 64.1297 38.7957 63.2473L45.3111 53.9814C44.4621 52.8775 43.9557 51.4971 43.9557 50C43.9557 47.0715 45.8892 44.5861 48.5469 43.7533V24.3816C48.5469 23.3029 49.4215 22.4285 50.5 22.4285C51.5785 22.4285 52.4531 23.3029 52.4531 24.3816V43.7533C55.1109 44.5859 57.0447 47.0713 57.0447 50ZM53.1385 50C53.1385 48.5453 51.9549 47.3617 50.5002 47.3617C49.0455 47.3617 47.8619 48.5453 47.8619 50C47.8619 51.4547 49.0455 52.6383 50.5002 52.6383C51.9549 52.6383 53.1385 51.4547 53.1385 50Z" fill="#EA7B14"/>
</g>
<defs>
<clipPath id="clip0_21_121">
<rect width="100" height="100" fill="white" transform="translate(0.5)"/>
</clipPath>
</defs>
</svg>
