<svg width="101" height="100" viewBox="0 0 101 100" fill="none" xmlns="http://www.w3.org/2000/svg">
<path d="M93.6898 19.8852L88.0201 18.7303C74.6477 16.0066 62.2055 9.77129 52.0203 0.692578C51.6619 0.268945 51.1266 0 50.5283 0H50.4717C49.8734 0 49.3381 0.268945 48.9797 0.692383C38.7945 9.77109 26.3524 16.0064 12.9799 18.7301L7.31017 19.885C6.4004 20.0703 5.74689 20.8705 5.74689 21.7988V36.9922C5.74689 47.823 8.52638 58.5527 13.7852 68.0213C19.044 77.4898 26.6836 85.5203 35.8781 91.2445L49.242 99.5645C49.5777 99.8367 50.0057 100 50.4717 100H50.5283C50.9943 100 51.4223 99.8367 51.758 99.5647L65.1219 91.2447C74.3164 85.5205 81.9561 77.49 87.2149 68.0215C92.4736 58.5529 95.2531 47.8232 95.2531 36.9924V21.799C95.2531 20.8705 94.5996 20.0705 93.6898 19.8852ZM91.3467 36.9922C91.3467 57.8586 80.7713 76.9002 63.0572 87.9283L50.5 95.7461L37.9426 87.9283C20.2285 76.9002 9.65314 57.8586 9.65314 36.9922V23.3943L13.7596 22.558C27.3393 19.7922 40.0057 13.5791 50.5 4.55332C60.9943 13.5791 73.6607 19.7922 87.2404 22.5578L91.3467 23.3941V36.9922Z" fill="#EA7B14"/>
<path d="M85.2777 26.6578C73.1502 24.1008 61.5348 18.7621 51.6875 11.219C50.9867 10.6821 50.0129 10.6821 49.3121 11.219C46.5732 13.317 43.673 15.2651 40.6922 17.0094C39.7611 17.5541 39.448 18.7504 39.9928 19.6815C40.5375 20.6125 41.7338 20.9258 42.6648 20.3809C45.3572 18.8055 47.9871 17.0707 50.4998 15.2137C60.1221 22.3231 71.2715 27.4551 82.9217 30.1381V37.2283C82.9217 43.6233 81.7711 49.853 79.5016 55.7444C79.1139 56.751 79.6154 57.8813 80.6221 58.269C80.8529 58.358 81.0904 58.4 81.3238 58.4C82.1082 58.4 82.848 57.9242 83.1467 57.1487C85.5895 50.8074 86.8279 44.1053 86.8279 37.2283V28.569C86.8279 27.6455 86.1812 26.8483 85.2777 26.6578Z" fill="#EA7B14"/>
<path d="M74.1592 69.3719C73.3248 68.6881 72.0943 68.8102 71.4105 69.6446C67.8486 73.9913 63.5932 77.7202 58.7627 80.7276L50.5 85.8717L42.2373 80.7276C27.1096 71.3096 18.0781 55.0481 18.0781 37.2282V30.1381C21.9178 29.2545 25.7199 28.1047 29.4023 26.7125C30.4113 26.3311 30.9201 25.204 30.5387 24.195C30.1572 23.186 29.0297 22.6774 28.0211 23.0586C24.0303 24.5674 19.8922 25.7784 15.7221 26.6577C14.8186 26.8481 14.1719 27.6454 14.1719 28.5688V37.2282C14.1719 56.4067 23.8918 73.9079 40.1729 84.0438L49.4678 89.8305C49.7838 90.0274 50.142 90.1256 50.5 90.1256C50.858 90.1256 51.2162 90.0272 51.5322 89.8305L60.8271 84.0438C66.0211 80.81 70.5986 76.7985 74.4318 72.1206C75.1156 71.2862 74.9934 70.0555 74.1592 69.3719Z" fill="#EA7B14"/>
<path d="M69.9795 39.0531L65.8802 34.9539C64.3472 33.4211 61.8531 33.4209 60.3203 34.9539L46.7916 48.4826L40.7072 42.3982C39.1744 40.8658 36.6804 40.8654 35.1474 42.3982L31.0211 46.5246C30.2785 47.2672 29.8695 48.2545 29.8695 49.3045C29.8695 50.3545 30.2785 51.3418 31.0211 52.0843L45.3814 66.4447C45.6043 66.6677 45.8758 66.8306 46.1709 66.9242C46.3642 66.9859 46.5654 67.0168 46.7664 67.0168C47.2662 67.0168 47.766 66.8261 48.1474 66.4449L69.9795 44.6131C71.5123 43.0801 71.5123 40.5861 69.9795 39.0531ZM67.2172 41.8509L46.7644 62.3037L33.7832 49.3224C33.7748 49.314 33.7748 49.2951 33.7832 49.2869L37.9094 45.1605C37.9142 45.1556 37.9207 45.1531 37.9271 45.1531C37.9336 45.1531 37.9398 45.1554 37.9449 45.1605L45.4103 52.626C46.1732 53.3886 47.4099 53.3886 48.1726 52.626L63.0824 37.7162C63.0924 37.7062 63.1084 37.7064 63.1179 37.7162L67.2172 41.8154C67.2256 41.8238 67.2256 41.8427 67.2172 41.8509Z" fill="#EA7B14"/>
</svg>
