<svg width="64" height="64" viewBox="0 0 64 64" fill="none" xmlns="http://www.w3.org/2000/svg">
<g clip-path="url(#clip0_114_1098)">
<path d="M9.07 51.3467C16.0647 47.3931 23.9653 45.3212 32 45.3333C40.3333 45.3333 48.1567 47.5167 54.93 51.3467M42 25.3333C42 27.9855 40.9464 30.529 39.0711 32.4044C37.1957 34.2798 34.6522 35.3333 32 35.3333C29.3478 35.3333 26.8043 34.2798 24.9289 32.4044C23.0536 30.529 22 27.9855 22 25.3333C22 22.6812 23.0536 20.1376 24.9289 18.2623C26.8043 16.3869 29.3478 15.3333 32 15.3333C34.6522 15.3333 37.1957 16.3869 39.0711 18.2623C40.9464 20.1376 42 22.6812 42 25.3333ZM62 32C62 35.9397 61.224 39.8407 59.7164 43.4805C58.2087 47.1203 55.999 50.4274 53.2132 53.2132C50.4274 55.999 47.1203 58.2087 43.4805 59.7164C39.8407 61.224 35.9397 62 32 62C28.0603 62 24.1593 61.224 20.5195 59.7164C16.8797 58.2087 13.5726 55.999 10.7868 53.2132C8.00104 50.4274 5.79125 47.1203 4.28361 43.4805C2.77597 39.8407 2 35.9397 2 32C2 24.0435 5.1607 16.4129 10.7868 10.7868C16.4129 5.16071 24.0435 2 32 2C39.9565 2 47.5871 5.16071 53.2132 10.7868C58.8393 16.4129 62 24.0435 62 32Z" stroke="black" stroke-opacity="0.6" stroke-width="2.66667" stroke-linecap="round" stroke-linejoin="round"/>
</g>
<defs>
<clipPath id="clip0_114_1098">
<rect width="64" height="64" fill="white"/>
</clipPath>
</defs>
</svg>
