<svg width="65" height="73" viewBox="0 0 65 73" fill="none" xmlns="http://www.w3.org/2000/svg">
<g clip-path="url(#clip0_33_287)">
<path d="M36.9655 23.8535C36.9688 23.2633 36.4914 22.7821 35.899 22.7788C35.8974 22.7788 35.8957 22.7788 35.8933 22.7788C35.3042 22.7788 34.8252 23.2542 34.8219 23.8428L34.8194 24.3814C34.0611 23.7994 33.1376 23.469 32.1105 23.469C29.5832 23.469 26.9688 25.6503 26.9688 29.3006C26.9688 32.6296 29.2291 35.3388 32.007 35.3388C33.2148 35.3388 34.3084 34.8306 35.1571 33.9756C35.3255 34.3158 35.5466 34.6297 35.8161 34.8994C36.4134 35.4986 37.1832 35.8282 37.9835 35.8282C40.2996 35.8282 41.767 34.219 42.3676 32.7132C43.2994 30.3753 43.467 28.4046 42.9107 26.325C42.9075 26.3143 42.905 26.3028 42.9009 26.2922C42.0587 23.5084 40.1747 21.2287 37.5949 19.8728C35.0158 18.5178 32.0654 18.258 29.2858 19.1408C26.6517 19.9769 24.4613 21.7804 23.1163 24.2191C21.7713 26.6578 21.4172 29.4695 22.1196 32.1361C22.7285 34.4461 24.0431 36.4389 25.9213 37.8988C27.7297 39.3047 29.9826 40.1137 32.2642 40.1769C32.274 40.1769 32.2847 40.1777 32.2946 40.1777C32.8722 40.1777 33.3487 39.7186 33.3652 39.1383C33.3816 38.5481 32.9149 38.0562 32.3233 38.0398C28.5086 37.9349 25.1646 35.2839 24.1918 31.5934C23.629 29.4596 23.9141 27.207 24.9929 25.2511C26.0716 23.2952 27.8274 21.8492 29.9357 21.1795C32.164 20.4721 34.5294 20.6803 36.5966 21.7664C38.658 22.8493 40.1657 24.6691 40.8435 26.8922C41.2979 28.6038 41.0235 30.2991 40.376 31.9246C40.1641 32.4558 39.5068 33.6911 37.9835 33.6911C37.6787 33.6911 37.4461 33.5042 37.3352 33.3919C37.0756 33.1312 36.9211 32.7476 36.9228 32.3656L36.9647 23.8535H36.9655ZM32.007 33.2009C30.6144 33.2009 29.1116 31.7098 29.1116 29.3006C29.1116 26.9881 30.6357 25.6069 32.1097 25.6069C33.6503 25.6069 34.7389 27.0349 34.7948 29.1006L34.7931 29.4916C34.7118 31.5557 33.4925 33.2001 32.0062 33.2001L32.007 33.2009Z" fill="white"/>
<path d="M64.9992 68.4148C64.9992 68.414 64.9992 68.414 64.9992 68.4132V31.9349C64.9992 30.7045 64.4963 29.5044 63.6189 28.6396C63.618 28.6388 63.6164 28.6371 63.6156 28.6355C63.6148 28.6347 63.6139 28.6347 63.6139 28.6339C63.6123 28.6322 63.6098 28.6298 63.6082 28.6281L59.3957 24.5032V22.8162V22.0915V17.5445V17.5395V15.0033C59.3957 12.4482 57.3121 10.3701 54.7519 10.3701H44.9632L35.6197 1.22107C35.6098 1.21123 35.5992 1.20139 35.5885 1.19156C33.8294 -0.398729 31.1755 -0.399549 29.4165 1.19156C29.4058 1.20139 29.3959 1.21041 29.3852 1.22107L20.0418 10.3701H10.253C7.69201 10.3701 5.6092 12.449 5.6092 15.0033V24.5024L1.39675 28.6273C1.39511 28.6289 1.39347 28.6306 1.39182 28.633C1.391 28.6339 1.39018 28.6347 1.38936 28.6355C1.38772 28.6371 1.38689 28.6388 1.38525 28.6404C0.509404 29.5052 0.00657296 30.7045 0.00657296 31.9349V42.4234H0V48.851H0.00739458V68.414V68.4148C0.00739458 68.4205 0.00739458 68.4263 0.0082162 68.432C0.0180756 70.9519 2.07541 72.9996 4.60354 72.9996H44.1703C44.2048 72.9996 44.2393 72.9979 44.273 72.9947H48.7385C48.7722 72.9979 48.8067 72.9996 48.8412 72.9996H60.4047C62.9328 72.9996 64.9901 70.9527 65 68.432C65 68.4263 65.0008 68.4205 65.0008 68.4148H64.9992ZM2.14279 44.258C2.14771 44.2178 2.14936 44.1777 2.14936 44.1367V31.9349C2.14936 31.6357 2.20687 31.3414 2.31122 31.0644L5.92388 34.6622L25.2697 53.9293L2.15018 66.6057V48.7961C2.15018 48.7543 2.14771 48.7133 2.14279 48.6723V44.2572V44.258ZM43.4243 70.8601H4.60189C3.45409 70.8601 2.49115 70.0682 2.22495 69.0042L27.5538 55.1171L31.321 53.0513C32.0604 52.6455 32.9437 52.6455 33.6831 53.0513L37.4503 55.1171L62.7792 69.0042C62.513 70.0682 61.55 70.8601 60.4022 70.8601H49.8658V70.8552H43.4234V70.8601H43.4243ZM57.2521 22.0866V22.0915V33.4621L37.7789 52.8562L34.7159 51.1774C33.3298 50.4175 31.6751 50.4175 30.289 51.1774L27.226 52.8562L7.75281 33.4621V15.0041C7.75281 13.6286 8.87432 12.5088 10.2538 12.5088H54.7519C56.1306 12.5088 57.2529 13.6278 57.2529 15.0041V16.3895V17.5404V22.0874L57.2521 22.0866ZM30.8699 2.76381C31.8041 1.9326 33.2008 1.9326 34.135 2.76381L41.9034 10.371H23.1023L30.8707 2.76381H30.8699ZM5.6092 31.3275L3.671 29.397L5.6092 27.4993V31.3275ZM59.0811 34.6622L62.6937 31.0644C62.7972 31.3414 62.8556 31.6357 62.8556 31.9349V66.6057L39.7352 53.9301L59.0811 34.663V34.6622ZM61.3339 29.397L59.3957 31.3275V27.4993L61.3339 29.397Z" fill="white"/>
</g>
<defs>
<clipPath id="clip0_33_287">
<rect width="65" height="73" fill="white"/>
</clipPath>
</defs>
</svg>
