<svg width="66" height="73" viewBox="0 0 66 73" fill="none" xmlns="http://www.w3.org/2000/svg">
<path fill-rule="evenodd" clip-rule="evenodd" d="M40.4096 0.417611C40.1423 0.150277 39.7796 0 39.4015 0H2.85157C1.27922 0 5.72205e-06 1.27921 5.72205e-06 2.85156V70.1484C5.72205e-06 71.7208 1.27922 73 2.85157 73H19.9761H32.8081H49.9327C51.5051 73 52.7843 71.7208 52.7843 70.1484V13.383C52.7843 13.0048 52.634 12.6421 52.3667 12.3748L40.4096 0.417611ZM2.85157 70.1484H19.9761H32.8081H49.9329V14.8087H40.1145C38.9352 14.8087 37.9758 13.8493 37.9758 12.6701V2.85156H2.85157V70.1484ZM47.9164 11.9572L40.8272 4.8679V11.9572H47.9164ZM18.2834 21.1937C18.2834 20.0144 17.324 19.055 16.1447 19.055H11.1545C9.97519 19.055 9.01578 20.0144 9.01578 21.1937V26.1839C9.01578 27.3632 9.97519 28.3226 11.1545 28.3226H16.1447C17.324 28.3226 18.2834 27.3632 18.2834 26.1839V21.1937ZM15.4318 25.471H11.8673V21.9066H15.4318V25.471ZM18.2834 38.2749C18.2834 37.0957 17.324 36.1363 16.1447 36.1363H11.1545C9.97519 36.1363 9.01578 37.0957 9.01578 38.2749V43.2652C9.01578 44.4444 9.97519 45.4039 11.1545 45.4039H16.1447C17.324 45.4039 18.2834 44.4444 18.2834 43.2652V38.2749ZM15.4318 42.5523H11.8673V38.9878H15.4318V42.5523ZM11.1545 53.2182H16.1447C17.324 53.2182 18.2834 54.1776 18.2834 55.3569V60.3471C18.2834 61.5264 17.324 62.4858 16.1447 62.4858H11.1545C9.97519 62.4858 9.01578 61.5264 9.01578 60.3471V55.3569C9.01578 54.1776 9.97519 53.2182 11.1545 53.2182ZM11.8673 59.6343H15.4318V56.0698H11.8673V59.6343ZM24.181 28.3225H42.551C43.3385 28.3225 43.9768 27.6842 43.9768 26.8967C43.9768 26.1093 43.3385 25.4709 42.551 25.4709H24.181C23.3935 25.4709 22.7552 26.1093 22.7552 26.8967C22.7552 27.6842 23.3935 28.3225 24.181 28.3225ZM34.0103 21.9066H24.181C23.3935 21.9066 22.7552 21.2683 22.7552 20.4808C22.7552 19.6933 23.3935 19.055 24.181 19.055H34.0103C34.7978 19.055 35.4361 19.6933 35.4361 20.4808C35.4361 21.2683 34.7978 21.9066 34.0103 21.9066ZM24.181 45.4041H42.551C43.3385 45.4041 43.9768 44.7658 43.9768 43.9783C43.9768 43.1909 43.3385 42.5526 42.551 42.5526H24.181C23.3935 42.5526 22.7552 43.1909 22.7552 43.9783C22.7552 44.7658 23.3935 45.4041 24.181 45.4041ZM34.0103 38.9878H24.181C23.3935 38.9878 22.7552 38.3495 22.7552 37.5621C22.7552 36.7746 23.3935 36.1363 24.181 36.1363H34.0103C34.7978 36.1363 35.4361 36.7746 35.4361 37.5621C35.4361 38.3495 34.7978 38.9878 34.0103 38.9878ZM43.9768 61.0599C43.9768 60.2725 43.3385 59.6342 42.551 59.6342H24.181C23.3935 59.6342 22.7552 60.2725 22.7552 61.0599C22.7552 61.8474 23.3935 62.4857 24.181 62.4857H42.551C43.3385 62.4857 43.9768 61.8474 43.9768 61.0599ZM34.0103 56.0698H24.181C23.3935 56.0698 22.7552 55.4315 22.7552 54.644C22.7552 53.8566 23.3935 53.2182 24.181 53.2182H34.0103C34.7978 53.2182 35.4361 53.8566 35.4361 54.644C35.4361 55.4315 34.7978 56.0698 34.0103 56.0698ZM64.7584 22.5613L65.4519 23.8893C65.6639 24.2951 65.776 24.7516 65.776 25.2094V62.6376C65.776 64.9917 63.9641 66.8992 61.651 66.9801C61.5993 66.9819 61.5475 66.9829 61.4961 66.9829C60.3814 66.9829 59.3323 66.5601 58.5274 65.7829C57.6851 64.9695 57.2213 63.8766 57.2213 62.7055V25.2094C57.2213 24.7517 57.3332 24.2955 57.5449 23.8901L57.9654 23.085L57.9891 23.0397C58.695 21.6876 59.5044 20.1374 60.2351 18.7398C60.4809 18.2693 60.9678 17.9744 61.4986 17.9744C62.0293 17.9744 62.5162 18.2693 62.7622 18.7396C63.3692 19.9011 63.9758 21.0628 64.5826 22.2247L64.7584 22.5613ZM61.4985 22.479L60.4929 24.4047L60.0724 25.2098L60.0727 55.5764H62.9243V25.2091L62.2308 23.8812C62.0961 23.6235 61.9616 23.3658 61.827 23.1081C61.7175 22.8984 61.608 22.6887 61.4985 22.479ZM60.5083 63.7315C60.7887 64.0023 61.1593 64.1426 61.5512 64.1302C62.3083 64.1037 62.9244 63.4342 62.9244 62.6374V58.4281H60.0728V62.7055C60.0728 63.096 60.2275 63.4604 60.5083 63.7315Z" fill="white"/>
</svg>
