<svg width="74" height="73" viewBox="0 0 74 73" fill="none" xmlns="http://www.w3.org/2000/svg">
<path fill-rule="evenodd" clip-rule="evenodd" d="M41.5625 -3.15011e-05C40.7747 -3.15011e-05 40.1363 0.638422 40.1363 1.42618C40.1363 2.21394 40.7747 2.8524 41.5625 2.8524C57.3366 2.8524 70.1698 15.6855 70.1698 31.4597C70.1698 32.2469 70.8082 32.8859 71.596 32.8859C72.3838 32.8859 73.0222 32.2469 73.0222 31.4597C73.0222 14.1128 58.9094 -3.15011e-05 41.5625 -3.15011e-05ZM41.5625 8.58005C40.7747 8.58005 40.1363 9.21906 40.1363 10.0068C40.1363 10.794 40.7747 11.433 41.5625 11.433C52.6051 11.433 61.5891 20.4165 61.5891 31.4596C61.5891 32.2468 62.2276 32.8859 63.0153 32.8859C63.8031 32.8859 64.4415 32.2468 64.4415 31.4596C64.4415 18.8438 54.1784 8.58005 41.5625 8.58005ZM54.4335 32.886C53.6458 32.886 53.0073 32.247 53.0073 31.4598C53.0073 25.1488 47.8729 20.015 41.5625 20.015C40.7747 20.015 40.1363 19.3765 40.1363 18.5888C40.1363 17.801 40.7747 17.1626 41.5625 17.1626C49.4462 17.1626 55.8597 23.5761 55.8597 31.4598C55.8597 32.247 55.2213 32.886 54.4335 32.886ZM40.1363 27.1693C40.1363 27.9565 40.7747 28.5956 41.5625 28.5956C43.1419 28.5956 44.4266 29.8803 44.4266 31.4597C44.4266 32.2469 45.0651 32.8859 45.8528 32.8859C46.6406 32.8859 47.279 32.2469 47.279 31.4597C47.279 28.307 44.7146 25.7431 41.5625 25.7431C40.7747 25.7431 40.1363 26.3816 40.1363 27.1693ZM44.586 47.5479C46.254 45.8793 48.9688 45.8793 50.6368 47.5479L61.7306 58.6428C63.3986 60.3108 63.3986 63.0251 61.7306 64.6937L57.5784 68.8453C53.3683 73.0554 46.898 74.1774 41.4901 71.6977C23.3404 63.3783 9.50388 49.0566 1.27306 31.25C-1.18604 25.9313 -0.0133171 19.5317 4.19234 15.326L8.27822 11.2402C9.95124 9.56769 12.6572 9.56769 14.3296 11.2402L25.4246 22.3351C27.097 24.0076 27.0965 26.714 25.4246 28.3859L20.7309 33.0796C19.8439 33.9665 19.6846 35.6329 20.3832 36.717C21.1481 37.9042 21.9699 39.0736 22.8262 40.194C24.6489 42.5557 28.9358 47.6512 31.5021 49.1396C33.0147 50.3713 34.6142 51.5318 36.2549 52.5892C37.3396 53.2873 39.0053 53.1285 39.8923 52.2416L44.586 47.5479ZM29.7015 51.3519C31.296 52.65 32.9807 53.8728 34.71 54.987C36.9173 56.4088 40.0795 56.0885 41.9096 54.2583L46.6033 49.5646C47.1598 49.0086 48.064 49.0092 48.62 49.5646L59.7133 60.6596C60.2693 61.2156 60.2693 62.1203 59.7133 62.6763L55.5617 66.828C52.2056 70.184 47.0284 71.0988 42.679 69.1043C20.9025 59.1231 9.55068 42.3589 3.86309 30.0534C1.90316 25.8148 2.8458 20.7066 6.20966 17.3433L10.2961 13.2575C10.8527 12.7004 11.7541 12.6987 12.3123 13.2575L23.4072 24.3524C23.9632 24.9084 23.9632 25.8126 23.4072 26.3686L18.7135 31.0629C16.8834 32.893 16.5636 36.0552 17.9854 38.2625C18.7915 39.5132 19.6573 40.7455 20.5593 41.926C22.5072 44.352 27.0627 49.6334 29.7015 51.3519Z" fill="white"/>
</svg>
