<svg width="31" height="30" viewBox="0 0 31 30" fill="none" xmlns="http://www.w3.org/2000/svg">
<g clip-path="url(#clip0_90_75)">
<path d="M16.1103 20.5069V16.8207C16.099 15.5438 15.0537 14.5172 13.7769 14.5294C12.6547 14.5397 11.7022 15.3535 11.5165 16.4597L11.5119 16.4625L10.6447 15.7003C9.71655 14.8875 8.32999 14.8875 7.4028 15.7003L0.975299 21.3507C0.683736 21.6075 0.655611 22.0528 0.912486 22.3444C1.16936 22.636 1.61467 22.6641 1.90624 22.4072L1.93624 22.381V27.7163C1.93811 28.8685 2.87092 29.8013 4.02311 29.8032H14.0253C15.1765 29.8041 16.1103 28.8703 16.1112 27.7191C16.1112 27.7182 16.1112 27.7163 16.1112 27.7153V22.3782L16.144 22.4072C16.4356 22.6632 16.88 22.635 17.1369 22.3425C17.3937 22.05 17.3647 21.6066 17.0722 21.3507L16.1103 20.5069ZM7.81249 28.3969V26.5388C7.81342 25.9641 8.27842 25.4991 8.85311 25.4982H9.32186C9.89655 25.4991 10.3615 25.9641 10.3625 26.5388L10.3634 28.3969H7.81249ZM14.0253 28.3969H11.7697V26.5388C11.7678 25.1878 10.6737 24.0938 9.3228 24.0919H8.85405C7.50311 24.0938 6.40905 25.1878 6.40717 26.5388V28.3969H4.02124C3.6453 28.396 3.34155 28.0922 3.34061 27.7163V21.1444L8.33092 16.756C8.72749 16.4082 9.31999 16.4082 9.71655 16.756L14.704 21.1407L14.705 27.7163C14.705 28.0913 14.4003 28.396 14.0253 28.3969ZM14.705 19.2694L12.8815 17.6644V16.8207C12.8815 16.3172 13.2894 15.9094 13.7928 15.9094C14.2962 15.9094 14.704 16.3172 14.704 16.8207L14.705 16.8235V19.2694Z" fill="#0B7F85" stroke="#0B7F85" stroke-width="0.459962"/>
<path d="M9.0256 18.3623C7.83498 18.3623 6.86935 19.3279 6.86935 20.5186C6.86935 21.7092 7.83498 22.6748 9.0256 22.6748C10.2162 22.6748 11.1819 21.7092 11.1819 20.5186C11.1819 19.3279 10.2162 18.3623 9.0256 18.3623ZM9.0256 21.2686C8.61123 21.2686 8.2756 20.9329 8.2756 20.5186C8.2756 20.1042 8.61123 19.7686 9.0256 19.7686C9.4381 19.7704 9.77185 20.1061 9.77185 20.5186H9.7756C9.7756 20.9329 9.43998 21.2686 9.0256 21.2686Z" fill="#0B7F85" stroke="#0B7F85" stroke-width="0.459962"/>
<path d="M29.5606 16.3501C29.1725 16.3501 28.8575 16.6651 28.8575 17.0532V24.9854C28.8546 26.8688 27.3293 28.3942 25.4459 28.397H19.1956C18.8075 28.397 18.4925 28.712 18.4925 29.1001C18.4925 29.4882 18.8075 29.8032 19.1956 29.8032H25.4459C28.1056 29.7995 30.26 27.6451 30.2637 24.9854V17.0532C30.2637 16.6651 29.9487 16.3501 29.5606 16.3501Z" fill="#0B7F85" stroke="#0B7F85" stroke-width="0.459962"/>
<path d="M1.43749 13.5279C1.82561 13.5279 2.14061 13.2129 2.14061 12.8248V5.0932C2.14342 3.20977 3.67061 1.68352 5.55405 1.68164H14.1969C14.585 1.68164 14.9 1.36664 14.9 0.978516C14.9 0.590391 14.585 0.275391 14.1969 0.275391H5.55405C2.89436 0.279141 0.739987 2.43352 0.736237 5.0932V12.8248C0.736237 13.212 1.04936 13.527 1.43749 13.5279Z" fill="#0B7F85" stroke="#0B7F85" stroke-width="0.459962"/>
<path d="M23.6862 9.84127C25.3362 9.8394 26.6731 8.50346 26.675 6.85346C26.6759 5.20252 25.3381 3.86471 23.6872 3.86377C22.0362 3.86283 20.6984 5.20065 20.6975 6.85158C20.6965 8.50252 22.0344 9.84033 23.6862 9.84127C23.6853 9.84127 23.6853 9.84127 23.6862 9.84127ZM22.1047 6.85346C22.1037 5.97971 22.8125 5.27096 23.6862 5.27002C24.56 5.26908 25.2687 5.97783 25.2697 6.85158C25.2706 7.72533 24.5619 8.43408 23.6881 8.43502C23.6872 8.43502 23.6872 8.43502 23.6862 8.43502C22.8125 8.43408 22.1056 7.72627 22.1047 6.85346Z" fill="#0B7F85"/>
<path d="M23.6862 9.84127C25.3362 9.8394 26.6731 8.50346 26.675 6.85346C26.6759 5.20252 25.3381 3.86471 23.6872 3.86377C22.0362 3.86283 20.6984 5.20065 20.6975 6.85158C20.6965 8.50252 22.0344 9.84033 23.6862 9.84127ZM23.6862 9.84127C23.6853 9.84127 23.6853 9.84127 23.6862 9.84127ZM22.1047 6.85346C22.1037 5.97971 22.8125 5.27096 23.6862 5.27002C24.56 5.26908 25.2687 5.97783 25.2697 6.85158C25.2706 7.72533 24.5619 8.43408 23.6881 8.43502C23.6872 8.43502 23.6872 8.43502 23.6862 8.43502C22.8125 8.43408 22.1056 7.72627 22.1047 6.85346Z" stroke="#0B7F85" stroke-width="0.459962"/>
<path d="M23.6862 16.1193C26.6722 16.1193 30.2637 10.4277 30.2637 6.85305C30.3069 3.22024 27.3978 0.240864 23.765 0.197739C20.1322 0.154614 17.1528 3.06368 17.1097 6.69649C17.1087 6.74899 17.1087 6.80149 17.1097 6.85305C17.1097 10.4277 20.7012 16.1193 23.6862 16.1193ZM23.6862 1.6818C26.5409 1.68555 28.8537 3.99836 28.8575 6.85305C28.8575 9.8643 25.67 14.7131 23.6862 14.7131C21.7025 14.7131 18.5159 9.8643 18.5159 6.85305C18.5187 3.99836 20.8316 1.68555 23.6862 1.6818Z" fill="#0B7F85" stroke="#0B7F85" stroke-width="0.459962"/>
</g>
<defs>
<clipPath id="clip0_90_75">
<rect width="30" height="30" fill="white" transform="translate(0.5)"/>
</clipPath>
</defs>
</svg>
