<svg width="30" height="30" viewBox="0 0 30 30" fill="none" xmlns="http://www.w3.org/2000/svg">
<g clip-path="url(#clip0_90_83)">
<path d="M5.60058 27.967L5.05118 28.7023H5.96905H23.4713C24.6599 28.7023 25.6262 27.736 25.6262 26.5475V22.8004C25.6262 21.6116 24.6599 20.6456 23.4713 20.6456H20.625C20.3938 20.6456 20.206 20.4579 20.206 20.2267C20.206 19.9953 20.3937 19.8077 20.625 19.8077H23.4713C25.1211 19.8077 26.4641 21.1506 26.4641 22.8004V26.5477C26.4641 28.1973 25.1211 29.5404 23.4713 29.5404H4.10161C4.09704 29.5404 4.09417 29.5403 4.09268 29.5402L4.09114 29.5401L4.09071 29.54L4.08042 29.5388L4.07008 29.538C3.96564 29.5302 3.86874 29.4843 3.79796 29.4097L3.79759 29.4093C3.77108 29.3814 2.96047 28.5236 2.14421 27.3251L2.14418 27.3251C0.99647 25.6403 0.460023 24.2088 0.460023 23.0556C0.460023 21.0481 2.09406 19.4141 4.10161 19.4141C6.10915 19.4141 7.74319 21.0481 7.74319 23.0556C7.74319 24.2089 7.20695 25.6404 6.05926 27.3251L6.05923 27.3251C5.90465 27.5521 5.75001 27.767 5.60058 27.967ZM3.74474 28.0727L4.10157 28.5115L4.45845 28.0727C4.95697 27.4598 5.56059 26.6327 6.04205 25.7581C6.51632 24.8967 6.90531 23.9306 6.90531 23.0556C6.90531 21.5091 5.64787 20.2519 4.10161 20.2519C2.55535 20.2519 1.29791 21.5091 1.29791 23.0556C1.29791 23.9306 1.6869 24.8966 2.16117 25.7581C2.64263 26.6326 3.24625 27.4596 3.74474 28.0727Z" fill="#0B7F85" stroke="#0B7F85" stroke-width="0.919923"/>
<path d="M15.7556 5.41487C15.7556 5.6463 15.5681 5.83382 15.3367 5.83382C15.1053 5.83382 14.9177 5.6463 14.9177 5.41487V3.01757C14.9177 2.78615 15.1053 2.59863 15.3367 2.59863C15.5681 2.59863 15.7556 2.78615 15.7556 3.01757V5.41487Z" fill="#0B7F85" stroke="#0B7F85" stroke-width="0.919923"/>
<path d="M13.3768 1.29784H10.9795C10.7481 1.29784 10.5605 1.11033 10.5605 0.878903C10.5605 0.647476 10.7481 0.459962 10.9795 0.459962H13.3768C13.6082 0.459962 13.7957 0.647476 13.7957 0.878903C13.7957 1.11033 13.6082 1.29784 13.3768 1.29784Z" fill="#0B7F85" stroke="#0B7F85" stroke-width="0.919923"/>
<path d="M10.9675 20.623L10.9667 20.6229C10.1987 20.4934 9.64204 19.8351 9.64204 19.0545V18.3013C9.64204 18.0698 9.82963 17.8823 10.0607 17.8823C10.2923 17.8823 10.4797 18.0699 10.4797 18.301V19.0543C10.4797 19.418 10.7443 19.7356 11.1059 19.7967L11.106 19.7967C11.3344 19.8352 11.488 20.0514 11.4495 20.2794L11.4494 20.2795C11.4151 20.4836 11.238 20.6288 11.0374 20.6288C11.0137 20.6288 10.9906 20.627 10.9675 20.623Z" fill="#0B7F85" stroke="#0B7F85" stroke-width="0.919923"/>
<path d="M10.0004 11.8925L10.0006 11.8924C10.2304 11.864 10.4392 12.027 10.4676 12.2566L10.924 12.2002L10.4676 12.2563C10.4756 12.3217 10.4797 12.388 10.4797 12.4536V14.7051C10.4797 14.9365 10.2922 15.124 10.0607 15.124C9.82963 15.124 9.64203 14.9366 9.64203 14.7051V12.4536C9.64203 12.4196 9.63961 12.3889 9.63683 12.3643L9.63685 12.3643L9.63625 12.3594C9.60778 12.1299 9.77077 11.9208 10.0004 11.8925Z" fill="#0B7F85" stroke="#0B7F85" stroke-width="0.919923"/>
<path d="M14.9179 9.01663L14.9179 9.0166C14.9149 8.78604 15.0985 8.59666 15.3288 8.59229H15.3288H15.3289H15.3289H15.3289H15.3289H15.329H15.329H15.329H15.329H15.3291H15.3291H15.3291H15.3291H15.3291H15.3292H15.3292H15.3292H15.3292H15.3293H15.3293H15.3293H15.3293H15.3294H15.3294H15.3294H15.3294H15.3294H15.3295H15.3295H15.3295H15.3295H15.3296H15.3296H15.3296H15.3296H15.3296H15.3297H15.3297H15.3297H15.3297H15.3298H15.3298H15.3298H15.3298H15.3299H15.3299H15.3299H15.3299H15.3299H15.33H15.33H15.33H15.33H15.3301H15.3301H15.3301H15.3301H15.3301H15.3302H15.3302H15.3302H15.3302H15.3303H15.3303H15.3303H15.3303H15.3304H15.3304H15.3304H15.3304H15.3304H15.3305H15.3305H15.3305H15.3305H15.3306H15.3306H15.3306H15.3306H15.3307H15.3307H15.3307H15.3307H15.3307H15.3308H15.3308H15.3308H15.3308H15.3309H15.3309H15.3309H15.3309H15.3309H15.331H15.331H15.331H15.331H15.3311H15.3311H15.3311H15.3311H15.3312H15.3312H15.3312H15.3312H15.3312H15.3313H15.3313H15.3313H15.3313H15.3314H15.3314H15.3314H15.3314H15.3314H15.3315H15.3315H15.3315H15.3315H15.3316H15.3316H15.3316H15.3316H15.3317H15.3317H15.3317H15.3317H15.3317H15.3318H15.3318H15.3318H15.3318H15.3319H15.3319H15.3319H15.3319H15.332H15.332H15.332H15.332H15.332H15.3321H15.3321H15.3321H15.3321H15.3322H15.3322H15.3322H15.3322H15.3322H15.3323H15.3323H15.3323H15.3323H15.3324H15.3324H15.3324H15.3324H15.3325H15.3325H15.3325H15.3325H15.3325H15.3326H15.3326H15.3326H15.3326H15.3327H15.3327H15.3327H15.3327H15.3327H15.3328H15.3328H15.3328H15.3328H15.3329H15.3329H15.3329H15.3329H15.333H15.333H15.333H15.333H15.333H15.3331H15.3331H15.3331H15.3331H15.3332H15.3332H15.3332H15.3332H15.3332H15.3333H15.3333H15.3333H15.3333H15.3334H15.3334H15.3334H15.3334H15.3335H15.3335H15.3335H15.3335H15.3335H15.3336H15.3336H15.3336H15.3336H15.3337H15.3337H15.3337H15.3337H15.3338H15.3338H15.3338H15.3338H15.3338H15.3339H15.3339H15.3339H15.3339H15.334H15.334H15.334H15.334H15.334H15.3341H15.3341H15.3341H15.3341H15.3342H15.3342H15.3342H15.3342H15.3343H15.3343H15.3343H15.3343H15.3343H15.3344H15.3344H15.3344H15.3344H15.3345H15.3345H15.3345H15.3345H15.3345H15.3346H15.3346H15.3346H15.3346H15.3347H15.3347H15.3347H15.3347H15.3348H15.3348H15.3348H15.3348H15.3348H15.3349H15.3349H15.3349H15.3349H15.335H15.335H15.335H15.335H15.3351H15.3351H15.3351H15.3351H15.3351H15.3352H15.3352H15.3352H15.3352H15.3353H15.3353H15.3353H15.3353H15.3353H15.3354H15.3354H15.3354H15.3354H15.3355H15.3355H15.3355H15.3355H15.3356H15.3356H15.3356H15.3356H15.3356H15.3357H15.3357H15.3357H15.3357H15.3358H15.3358H15.3358H15.3358H15.3358H15.3359H15.3359H15.3359H15.3359H15.336H15.336H15.336H15.336H15.3361H15.3361H15.3361H15.3361H15.3361H15.3362H15.3362H15.3362H15.3362H15.3363H15.3363H15.3363H15.3363H15.3364H15.3364H15.3364H15.3364H15.3364H15.3365H15.3365H15.3365H15.3365H15.3366H15.3366H15.3366H15.3366H15.3366H15.3367H15.3367H15.3367H15.3367H15.3368H15.3368H15.3368H15.3368H15.3369H15.3369H15.3369H15.3369C15.5658 8.59229 15.7526 8.77624 15.7557 9.00568C15.7611 9.4171 16.0979 9.74836 16.5086 9.74836H17.0801C17.3115 9.74836 17.499 9.93588 17.499 10.1673C17.499 10.3987 17.3115 10.5862 17.0801 10.5862H16.5086C15.6442 10.5862 14.9293 9.88072 14.9179 9.01663Z" fill="#0B7F85" stroke="#0B7F85" stroke-width="0.919923"/>
<path d="M14.6315 19.8076H17.029C17.2603 19.8076 17.448 19.9952 17.448 20.2266C17.448 20.4578 17.2602 20.6455 17.029 20.6455H14.6315C14.4001 20.6455 14.2126 20.4578 14.2126 20.2266C14.2126 19.9951 14.4001 19.8076 14.6315 19.8076Z" fill="#0B7F85" stroke="#0B7F85" stroke-width="0.919923"/>
<path d="M7.3833 1.29784H4.986C4.75458 1.29784 4.56706 1.11033 4.56706 0.878903C4.56706 0.647476 4.75458 0.459962 4.986 0.459962H7.3833C7.61473 0.459962 7.80224 0.647476 7.80224 0.878903C7.80224 1.11033 7.61473 1.29784 7.3833 1.29784Z" fill="#0B7F85" stroke="#0B7F85" stroke-width="0.919923"/>
<path d="M2.14992 1.82311L2.15063 1.82087C2.22124 1.60032 2.09972 1.36465 1.87936 1.29418L1.87923 1.29413C1.65878 1.22356 1.42329 1.34494 1.35277 1.56538L2.14992 1.82311ZM2.14992 1.82311C2.12655 1.89741 2.11523 1.97401 2.11523 2.0506V4.08467C2.11523 4.31602 1.92756 4.50361 1.69629 4.50361M2.14992 1.82311L1.69629 4.50361M1.69629 4.50361C1.46486 4.50361 1.27734 4.31609 1.27734 4.08467V2.0506C1.27734 1.88482 1.30277 1.72176 1.35276 1.56541L1.69629 4.50361Z" fill="#0B7F85" stroke="#0B7F85" stroke-width="0.919923"/>
<path d="M6.98848 11.7007H4.59118C4.35976 11.7007 4.17224 11.5132 4.17224 11.2817C4.17224 11.0503 4.35976 10.8628 4.59118 10.8628H6.98848C7.21991 10.8628 7.40742 11.0503 7.40742 11.2817C7.40742 11.5132 7.21991 11.7007 6.98848 11.7007Z" fill="#0B7F85" stroke="#0B7F85" stroke-width="0.919923"/>
<path d="M2.11523 10.078C2.11523 10.3093 1.92756 10.4969 1.69629 10.4969C1.46486 10.4969 1.27734 10.3094 1.27734 10.078V7.68066C1.27734 7.44923 1.46486 7.26172 1.69629 7.26172C1.92756 7.26172 2.11523 7.44931 2.11523 7.68066V10.078Z" fill="#0B7F85" stroke="#0B7F85" stroke-width="0.919923"/>
<path d="M21.4363 7.31366V6.20322L20.6511 6.98842L20.6279 7.01154C20.4645 7.175 20.1991 7.175 20.0356 7.01154C19.8719 6.84784 19.8719 6.58267 20.0356 6.41897L24.4301 2.02446C24.5936 1.86099 24.859 1.86099 25.0225 2.02446L29.417 6.41897C29.5807 6.58267 29.5807 6.84784 29.417 7.01154L29.4168 7.01176C29.3352 7.09345 29.2288 7.13431 29.1208 7.13431C29.0128 7.13431 28.9064 7.09345 28.8249 7.01176L28.8246 7.01154L28.8015 6.98842L28.0163 6.20322V7.31366V10.1722C28.0163 10.4035 27.8289 10.591 27.5976 10.5911C27.5975 10.5911 27.5974 10.5911 27.5974 10.5911L20.6837 10.5863H20.6833C20.4521 10.5863 20.2644 10.3987 20.2644 10.1674C20.2644 9.936 20.4521 9.74841 20.6833 9.74841H20.9763H21.4363V9.28845V7.31366ZM26.7185 9.75322H27.1784V9.29325V5.55586V5.36534L27.0437 5.23062L25.0515 3.23844L24.7263 2.91319L24.401 3.23844L22.4089 5.23062L22.2741 5.36534V5.55586V9.29325V9.75322H22.7341H26.7185Z" fill="#0B7F85" stroke="#0B7F85" stroke-width="0.919923"/>
<path d="M4.398 23.3291L4.39755 23.3296C4.32054 23.4066 4.21146 23.4519 4.1016 23.4519C3.99243 23.4519 3.8831 23.4069 3.80498 23.3294C3.72791 23.2519 3.68266 23.1424 3.68266 23.0332C3.68266 22.9235 3.72813 22.8138 3.80543 22.7363L3.47997 22.4113L3.80521 22.7366C3.88199 22.6598 3.99166 22.6143 4.1016 22.6143C4.21146 22.6143 4.32054 22.6596 4.39755 22.7366L4.398 22.737C4.47519 22.814 4.52055 22.9232 4.52055 23.0332C4.52055 23.1429 4.47523 23.2521 4.398 23.3291Z" fill="#0B7F85" stroke="#0B7F85" stroke-width="0.919923"/>
</g>
<defs>
<clipPath id="clip0_90_83">
<rect width="30" height="30" fill="white"/>
</clipPath>
</defs>
</svg>
