<svg width="30" height="30" viewBox="0 0 30 30" fill="none" xmlns="http://www.w3.org/2000/svg">
<path d="M15 1.24951C7.41844 1.24951 1.25 7.41764 1.25 14.9995C1.25 22.5814 7.41844 28.7495 15 28.7495C22.5816 28.7495 28.75 22.5814 28.75 14.9995C28.75 7.41764 22.5816 1.24951 15 1.24951ZM15 27.1317C8.31031 27.1317 2.86781 21.6895 2.86781 14.9995C2.86781 8.3092 8.31031 2.86701 15 2.86701C21.6897 2.86701 27.1322 8.3092 27.1322 14.9995C27.1322 21.6895 21.6897 27.1317 15 27.1317Z" fill="#0B7F85"/>
<path d="M15 3.67627C8.78625 3.67627 3.7275 8.70721 3.67875 14.9097C3.67562 14.9397 3.67 14.97 3.67 15C3.67 15.03 3.67562 15.06 3.67875 15.0903C3.7275 21.2922 8.78625 26.3231 15 26.3231C21.2437 26.3231 26.3234 21.2435 26.3234 14.9997C26.3234 8.75596 21.2437 3.67627 15 3.67627ZM15.9375 24.6594V23.0878C15.9375 22.6406 15.4466 22.2791 15 22.2791C14.5534 22.2791 14.0625 22.6406 14.0625 23.0878V24.6594C9.45781 24.216 5.78375 20.5422 5.34031 15.9372H6.90531C7.35187 15.9372 7.71406 15.4469 7.71406 14.9997C7.71406 14.5525 7.35187 14.0622 6.90531 14.0622H5.34031C5.78375 9.45721 9.45781 5.78346 14.0625 5.34002V6.91158C14.0625 7.35877 14.5534 7.72033 15 7.72033C15.4466 7.72033 15.9375 7.35846 15.9375 6.91158V5.34002C20.8509 5.81315 24.7059 9.96377 24.7059 14.9997C24.7059 20.0356 20.8509 24.1863 15.9375 24.6594Z" fill="#0B7F85"/>
<path d="M22.5603 14.1244L17.2578 11.2563C16.8159 11.0163 16.2309 11.1638 15.954 11.5826C15.77 11.8607 15.7378 12.2104 15.8684 12.5194L16.9209 14.9998L15.8681 17.4807C15.7378 17.7888 15.77 18.1385 15.954 18.4166C16.1397 18.6969 16.45 18.8735 16.7837 18.8638C17.3437 18.8476 22.5609 15.8741 22.5609 15.8741C22.8822 15.7004 23.0819 15.3654 23.0819 14.9998C23.0819 14.6341 22.8822 14.2991 22.5603 14.1244ZM18.0528 16.4744L18.5134 15.3876C18.6181 15.141 18.6181 14.8585 18.5134 14.611L18.0528 13.5251L20.7778 14.9998L18.0528 16.4744Z" fill="#0B7F85"/>
</svg>
