<svg width="30" height="30" viewBox="0 0 30 30" fill="none" xmlns="http://www.w3.org/2000/svg">
<g clip-path="url(#clip0_90_110)">
<mask id="path-1-inside-1_90_110" fill="white">
<path fill-rule="evenodd" clip-rule="evenodd" d="M29.935 14.7225L26.9264 8.87032C26.7244 8.47722 26.3242 8.23294 25.8821 8.23294H19.0243C18.2146 8.23294 17.5557 8.89177 17.5557 9.70153V16.4758H13.8987V10.1086L14.9865 11.0054C15.0959 11.0955 15.2281 11.1395 15.3596 11.1395C15.5289 11.1395 15.6969 11.0666 15.8129 10.9258C16.0192 10.6757 15.9836 10.3056 15.7334 10.0994L9.62584 5.0646C9.17771 4.69528 8.52721 4.69522 8.0792 5.06466L1.97162 10.0994C1.72143 10.3056 1.68574 10.6757 1.89205 10.9258C2.09824 11.176 2.46832 11.2117 2.71846 11.0054L3.80631 10.1086V16.4758H1.17416C0.526699 16.4758 0 17.0025 0 17.65V21.3903C0 22.2006 0.65918 22.8598 1.46941 22.8598H2.47078C2.74371 24.2004 3.93176 25.2125 5.35184 25.2125C6.77191 25.2125 7.96002 24.2004 8.23295 22.8598L15.375 22.8751L21.1012 22.8598C21.3742 24.2005 22.5622 25.2126 23.9823 25.2126C25.4024 25.2126 26.5905 24.2005 26.8634 22.8598H28.2361C29.2087 22.8598 30.0001 22.0685 30.0001 21.0958V14.991C30 14.8976 29.9777 14.8056 29.935 14.7225ZM8.23301 21.6855H15.375L17.5557 21.6856V17.6499H1.17416V21.3902C1.17416 21.5531 1.30658 21.6855 1.46941 21.6855H2.47072C2.74348 20.3447 3.93164 19.3324 5.35184 19.3324C6.77209 19.3324 7.96031 20.3446 8.23301 21.6855ZM7.11779 22.2724C7.11779 21.2987 6.32555 20.5065 5.35184 20.5065C4.37807 20.5065 3.58594 21.2987 3.58594 22.2724C3.58594 23.2462 4.37812 24.0383 5.35184 24.0383C6.32555 24.0383 7.11779 23.2461 7.11779 22.2724ZM8.82603 5.97069L4.97947 9.14149C4.97971 9.14765 4.98041 9.15362 4.98041 9.15983V16.4758H6.95643V14.4141C6.95643 13.815 7.44375 13.3277 8.04281 13.3277H9.66217C10.2612 13.3277 10.7486 13.815 10.7486 14.4141V16.4758H12.7245V9.15983C12.7245 9.15362 12.7253 9.14765 12.7254 9.14149L8.879 5.97069C8.86365 5.9581 8.84139 5.9581 8.82603 5.97069ZM8.13058 16.4758H9.57445V14.5018H8.13058V16.4758ZM23.6844 14.2382H28.3658L27.0894 11.7555H23.6844V14.2382ZM22.2163 22.2724C22.2163 23.2461 23.0085 24.0383 23.9822 24.0383C24.956 24.0383 25.7482 23.2462 25.7482 22.2724C25.7482 21.2987 24.956 20.5065 23.9822 20.5065C23.0085 20.5065 22.2163 21.2987 22.2163 22.2724ZM26.8634 21.6856H28.236C28.5612 21.6856 28.8258 21.421 28.8258 21.0958V15.4124H23.6843C23.0368 15.4124 22.5101 14.8857 22.5101 14.2382V11.7555C22.5101 11.108 23.0368 10.5813 23.6843 10.5813H26.4857L25.882 9.40716H19.0243C18.862 9.40716 18.7299 9.53923 18.7299 9.70153V21.6856H21.1011C21.3739 20.3447 22.562 19.3324 23.9822 19.3324C25.4025 19.3324 26.5907 20.3447 26.8634 21.6856Z"/>
</mask>
<path fill-rule="evenodd" clip-rule="evenodd" d="M29.935 14.7225L26.9264 8.87032C26.7244 8.47722 26.3242 8.23294 25.8821 8.23294H19.0243C18.2146 8.23294 17.5557 8.89177 17.5557 9.70153V16.4758H13.8987V10.1086L14.9865 11.0054C15.0959 11.0955 15.2281 11.1395 15.3596 11.1395C15.5289 11.1395 15.6969 11.0666 15.8129 10.9258C16.0192 10.6757 15.9836 10.3056 15.7334 10.0994L9.62584 5.0646C9.17771 4.69528 8.52721 4.69522 8.0792 5.06466L1.97162 10.0994C1.72143 10.3056 1.68574 10.6757 1.89205 10.9258C2.09824 11.176 2.46832 11.2117 2.71846 11.0054L3.80631 10.1086V16.4758H1.17416C0.526699 16.4758 0 17.0025 0 17.65V21.3903C0 22.2006 0.65918 22.8598 1.46941 22.8598H2.47078C2.74371 24.2004 3.93176 25.2125 5.35184 25.2125C6.77191 25.2125 7.96002 24.2004 8.23295 22.8598L15.375 22.8751L21.1012 22.8598C21.3742 24.2005 22.5622 25.2126 23.9823 25.2126C25.4024 25.2126 26.5905 24.2005 26.8634 22.8598H28.2361C29.2087 22.8598 30.0001 22.0685 30.0001 21.0958V14.991C30 14.8976 29.9777 14.8056 29.935 14.7225ZM8.23301 21.6855H15.375L17.5557 21.6856V17.6499H1.17416V21.3902C1.17416 21.5531 1.30658 21.6855 1.46941 21.6855H2.47072C2.74348 20.3447 3.93164 19.3324 5.35184 19.3324C6.77209 19.3324 7.96031 20.3446 8.23301 21.6855ZM7.11779 22.2724C7.11779 21.2987 6.32555 20.5065 5.35184 20.5065C4.37807 20.5065 3.58594 21.2987 3.58594 22.2724C3.58594 23.2462 4.37812 24.0383 5.35184 24.0383C6.32555 24.0383 7.11779 23.2461 7.11779 22.2724ZM8.82603 5.97069L4.97947 9.14149C4.97971 9.14765 4.98041 9.15362 4.98041 9.15983V16.4758H6.95643V14.4141C6.95643 13.815 7.44375 13.3277 8.04281 13.3277H9.66217C10.2612 13.3277 10.7486 13.815 10.7486 14.4141V16.4758H12.7245V9.15983C12.7245 9.15362 12.7253 9.14765 12.7254 9.14149L8.879 5.97069C8.86365 5.9581 8.84139 5.9581 8.82603 5.97069ZM8.13058 16.4758H9.57445V14.5018H8.13058V16.4758ZM23.6844 14.2382H28.3658L27.0894 11.7555H23.6844V14.2382ZM22.2163 22.2724C22.2163 23.2461 23.0085 24.0383 23.9822 24.0383C24.956 24.0383 25.7482 23.2462 25.7482 22.2724C25.7482 21.2987 24.956 20.5065 23.9822 20.5065C23.0085 20.5065 22.2163 21.2987 22.2163 22.2724ZM26.8634 21.6856H28.236C28.5612 21.6856 28.8258 21.421 28.8258 21.0958V15.4124H23.6843C23.0368 15.4124 22.5101 14.8857 22.5101 14.2382V11.7555C22.5101 11.108 23.0368 10.5813 23.6843 10.5813H26.4857L25.882 9.40716H19.0243C18.862 9.40716 18.7299 9.53923 18.7299 9.70153V21.6856H21.1011C21.3739 20.3447 22.562 19.3324 23.9822 19.3324C25.4025 19.3324 26.5907 20.3447 26.8634 21.6856Z" fill="#0B7F85"/>
<path d="M29.935 14.7225L28.4439 15.4891L28.4442 15.4895L29.935 14.7225ZM26.9264 8.87032L25.4352 9.6367L25.4353 9.63689L26.9264 8.87032ZM17.5557 16.4758V18.1524H19.2323V16.4758H17.5557ZM13.8987 16.4758H12.2221V18.1524H13.8987V16.4758ZM13.8987 10.1086L14.9651 8.81495L12.2221 6.55373V10.1086H13.8987ZM14.9865 11.0054L13.92 12.2991L13.92 12.2991L14.9865 11.0054ZM15.8129 10.9258L14.5195 9.859L14.5193 9.85931L15.8129 10.9258ZM15.7334 10.0994L14.6669 11.3931L14.6669 11.3931L15.7334 10.0994ZM9.62584 5.0646L10.6923 3.77092L10.6921 3.77077L9.62584 5.0646ZM8.0792 5.06466L9.14565 6.35835L9.14585 6.35818L8.0792 5.06466ZM1.97162 10.0994L0.905174 8.80569L0.905163 8.8057L1.97162 10.0994ZM1.89205 10.9258L3.18601 9.85966L3.18547 9.859L1.89205 10.9258ZM2.71846 11.0054L1.65204 9.71164L1.65167 9.71195L2.71846 11.0054ZM3.80631 10.1086H5.4829V6.55385L2.73989 8.81492L3.80631 10.1086ZM3.80631 16.4758V18.1524H5.4829V16.4758H3.80631ZM2.47078 22.8598L4.11367 22.5253L3.84045 21.1832H2.47078V22.8598ZM8.23295 22.8598L8.23656 21.1832L6.86388 21.1802L6.59006 22.5253L8.23295 22.8598ZM15.375 22.8751L15.3714 24.5517L15.3795 24.5517L15.375 22.8751ZM15.375 21.6855L15.375 20.0089H15.375V21.6855ZM8.23301 21.6855L6.59005 22.0197L6.86306 23.3621H8.23301V21.6855ZM2.47072 21.6855V23.3621H3.8406L4.11367 22.0197L2.47072 21.6855ZM1.17416 17.6499V15.9733H-0.502431V17.6499H1.17416ZM17.5557 17.6499H19.2323V15.9733H17.5557V17.6499ZM17.5557 21.6856L17.5557 23.3622L19.2323 23.3622V21.6856H17.5557ZM21.1012 22.8598L22.7441 22.5254L22.4702 21.1796L21.0968 21.1832L21.1012 22.8598ZM26.8634 22.8598V21.1832H25.4937L25.2205 22.5254L26.8634 22.8598ZM30.0001 14.991H31.6766V14.9899L30.0001 14.991ZM4.97947 9.14149L3.91304 7.84779L3.2725 8.3758L3.3041 9.20532L4.97947 9.14149ZM8.82603 5.97069L7.76247 4.67462L7.7596 4.67699L8.82603 5.97069ZM8.879 5.97069L9.94546 4.677L9.94257 4.67463L8.879 5.97069ZM12.7254 9.14149L14.4014 9.18938L14.4248 8.36951L13.7919 7.8478L12.7254 9.14149ZM12.7245 16.4758V18.1524H14.4011V16.4758H12.7245ZM10.7486 16.4758H9.07202V18.1524H10.7486V16.4758ZM6.95643 16.4758V18.1524H8.63302V16.4758H6.95643ZM4.98041 16.4758H3.30382V18.1524H4.98041V16.4758ZM9.57445 16.4758V18.1524H11.251V16.4758H9.57445ZM8.13058 16.4758H6.45399V18.1524H8.13058V16.4758ZM8.13058 14.5018V12.8252H6.45399V14.5018H8.13058ZM9.57445 14.5018H11.251V12.8252H9.57445V14.5018ZM28.3658 14.2382V15.9148H31.1129L29.8568 13.4716L28.3658 14.2382ZM23.6844 14.2382H22.0078V15.9148H23.6844V14.2382ZM23.6844 11.7555V10.0789H22.0078V11.7555H23.6844ZM27.0894 11.7555L28.5804 10.9889L28.1126 10.0789H27.0894V11.7555ZM26.8634 21.6856L25.2205 22.0197L25.4935 23.3622H26.8634V21.6856ZM21.1011 21.6856V23.3622H22.471L22.7441 22.0198L21.1011 21.6856ZM18.7299 21.6856H17.0533V23.3622H18.7299V21.6856ZM25.882 9.40716L27.3731 8.64059L26.9053 7.73057H25.882V9.40716ZM26.4857 10.5813V12.2579H29.2328L27.9767 9.81475L26.4857 10.5813ZM28.8258 15.4124H30.5024V13.7358H28.8258V15.4124ZM28.8258 21.0958H27.1492V21.0961L28.8258 21.0958ZM31.4261 13.956L28.4175 8.10376L25.4353 9.63689L28.4439 15.4891L31.4261 13.956ZM28.4176 8.10395C27.9283 7.1519 26.9524 6.55635 25.8821 6.55635V9.90953C25.6959 9.90953 25.5205 9.80254 25.4352 9.6367L28.4176 8.10395ZM25.8821 6.55635H19.0243V9.90953H25.8821V6.55635ZM19.0243 6.55635C17.2886 6.55635 15.8792 7.96581 15.8792 9.70153H19.2323C19.2323 9.81772 19.1405 9.90953 19.0243 9.90953V6.55635ZM15.8792 9.70153V16.4758H19.2323V9.70153H15.8792ZM17.5557 14.7992H13.8987V18.1524H17.5557V14.7992ZM15.5753 16.4758V10.1086H12.2221V16.4758H15.5753ZM12.8322 11.4023L13.92 12.2991L16.0529 9.71167L14.9651 8.81495L12.8322 11.4023ZM13.92 12.2991C14.3405 12.6457 14.8532 12.8161 15.3596 12.8161V9.46289C15.603 9.46289 15.8512 9.54542 16.0529 9.71165L13.92 12.2991ZM15.3596 12.8161C16.0083 12.8161 16.6588 12.5355 17.1066 11.9923L14.5193 9.85931C14.735 9.59767 15.0494 9.46289 15.3596 9.46289V12.8161ZM17.1063 11.9926C17.9023 11.0275 17.7642 9.60068 16.7998 8.8057L14.6669 11.3931C14.2029 11.0106 14.1362 10.3238 14.5195 9.859L17.1063 11.9926ZM16.7998 8.8057L10.6923 3.77092L8.55938 6.35828L14.6669 11.3931L16.7998 8.8057ZM10.6921 3.77077C9.62492 2.89125 8.08012 2.8908 7.01254 3.77114L9.14585 6.35818C8.97429 6.49965 8.7305 6.49931 8.55955 6.35842L10.6921 3.77077ZM7.01275 3.77096L0.905174 8.80569L3.03807 11.3931L9.14565 6.35835L7.01275 3.77096ZM0.905163 8.8057C-0.0592023 9.60068 -0.197313 11.0275 0.598636 11.9926L3.18547 9.859C3.5688 10.3238 3.50205 11.0106 3.03808 11.3931L0.905163 8.8057ZM0.598093 11.9919C1.3933 12.9571 2.82052 13.0945 3.78524 12.2988L1.65167 9.71195C2.11612 9.32887 2.80318 9.39503 3.18601 9.85966L0.598093 11.9919ZM3.78487 12.2991L4.87273 11.4024L2.73989 8.81492L1.65204 9.71164L3.78487 12.2991ZM2.12972 10.1086V16.4758H5.4829V10.1086H2.12972ZM3.80631 14.7992H1.17416V18.1524H3.80631V14.7992ZM1.17416 14.7992C-0.399257 14.7992 -1.67659 16.0765 -1.67659 17.65H1.67659C1.67659 17.9284 1.45265 18.1524 1.17416 18.1524V14.7992ZM-1.67659 17.65V21.3903H1.67659V17.65H-1.67659ZM-1.67659 21.3903C-1.67659 23.1265 -0.26682 24.5363 1.46941 24.5363V21.1832C1.58518 21.1832 1.67659 21.2747 1.67659 21.3903H-1.67659ZM1.46941 24.5363H2.47078V21.1832H1.46941V24.5363ZM0.827888 23.1942C1.25637 25.299 3.11757 26.8891 5.35184 26.8891V23.5359C4.74595 23.5359 4.23106 23.1019 4.11367 22.5253L0.827888 23.1942ZM5.35184 26.8891C7.58606 26.8891 9.44736 25.299 9.87584 23.1942L6.59006 22.5253C6.47268 23.1019 5.95777 23.5359 5.35184 23.5359V26.8891ZM8.22934 24.5363L15.3714 24.5517L15.3786 21.1985L8.23656 21.1832L8.22934 24.5363ZM15.375 20.0089H8.23301V23.3621H15.375V20.0089ZM9.87597 21.3514C9.44782 19.2461 7.58626 17.6558 5.35184 17.6558V21.0089C5.95792 21.0089 6.4728 21.4431 6.59005 22.0197L9.87597 21.3514ZM5.35184 17.6558C3.11736 17.6558 1.25598 19.2463 0.827778 21.3513L4.11367 22.0197C4.23097 21.4431 4.74592 21.0089 5.35184 21.0089V17.6558ZM2.47072 20.0089H1.46941V23.3621H2.47072V20.0089ZM1.46941 20.0089C2.23298 20.0089 2.85075 20.6275 2.85075 21.3902H-0.502431C-0.502431 22.4786 0.380187 23.3621 1.46941 23.3621V20.0089ZM2.85075 21.3902V17.6499H-0.502431V21.3902H2.85075ZM1.17416 19.3265H17.5557V15.9733H1.17416V19.3265ZM15.8792 17.6499V21.6856H19.2323V17.6499H15.8792ZM17.5558 20.009L15.375 20.0089L15.375 23.3621L17.5557 23.3622L17.5558 20.009ZM15.3795 24.5517L21.1057 24.5364L21.0968 21.1832L15.3705 21.1985L15.3795 24.5517ZM19.4584 23.1943C19.8868 25.299 21.748 26.8892 23.9823 26.8892V23.536C23.3764 23.536 22.8615 23.102 22.7441 22.5254L19.4584 23.1943ZM23.9823 26.8892C26.2165 26.8892 28.0778 25.2991 28.5063 23.1943L25.2205 22.5254C25.1031 23.1019 24.5882 23.536 23.9823 23.536V26.8892ZM26.8634 24.5364H28.2361V21.1832H26.8634V24.5364ZM28.2361 24.5364C30.1347 24.5364 31.6766 22.9945 31.6766 21.0958H28.3235C28.3235 21.1182 28.3162 21.1381 28.2973 21.157C28.2784 21.176 28.2585 21.1832 28.2361 21.1832V24.5364ZM31.6766 21.0958V14.991H28.3235V21.0958H31.6766ZM31.6766 14.9899C31.6764 14.6306 31.5907 14.276 31.4259 13.9555L28.4442 15.4895C28.3647 15.3351 28.3236 15.1645 28.3235 14.992L31.6766 14.9899ZM5.35184 22.1831C5.37472 22.1831 5.39517 22.1906 5.41445 22.2099C5.43374 22.2292 5.4412 22.2496 5.4412 22.2724H8.79438C8.79438 20.3727 7.25143 18.8299 5.35184 18.8299V22.1831ZM5.4412 22.2724C5.4412 22.2952 5.43374 22.3157 5.41445 22.3349C5.39516 22.3542 5.37472 22.3617 5.35184 22.3617V25.7149C7.25143 25.7149 8.79438 24.1721 8.79438 22.2724H5.4412ZM5.35184 22.3617C5.32892 22.3617 5.30851 22.3542 5.28926 22.335C5.27002 22.3157 5.26253 22.2953 5.26253 22.2724H1.90935C1.90935 24.1722 3.4522 25.7149 5.35184 25.7149V22.3617ZM5.26253 22.2724C5.26253 22.2495 5.27002 22.2291 5.28926 22.2098C5.30851 22.1906 5.32891 22.1831 5.35184 22.1831V18.8299C3.45208 18.8299 1.90935 20.3728 1.90935 22.2724H5.26253ZM6.0459 10.4352L9.89246 7.2644L7.7596 4.67699L3.91304 7.84779L6.0459 10.4352ZM9.8896 7.26676C9.28667 7.76153 8.41837 7.76153 7.81544 7.26676L9.94257 4.67463C9.30894 4.15466 8.3961 4.15466 7.76247 4.67463L9.8896 7.26676ZM7.81255 7.26439L11.659 10.4352L13.7919 7.8478L9.94545 4.677L7.81255 7.26439ZM11.0495 9.09361C11.0502 9.06897 11.0514 9.04971 11.052 9.04034C11.0523 9.03555 11.0525 9.03197 11.0526 9.0311C11.0526 9.03067 11.0526 9.03033 11.0526 9.03089C11.0526 9.0312 11.0525 9.03234 11.0524 9.03364C11.0521 9.03803 11.051 9.05399 11.05 9.07394C11.049 9.09472 11.0479 9.12434 11.0479 9.15983H14.4011C14.4011 9.19222 14.4001 9.21877 14.3993 9.23649C14.3988 9.24543 14.3984 9.2528 14.3981 9.2579C14.3978 9.26286 14.3975 9.26659 14.3974 9.26765C14.3974 9.26818 14.3974 9.26856 14.3974 9.26811C14.3974 9.26791 14.3975 9.26681 14.3976 9.26563C14.3977 9.26324 14.3981 9.25814 14.3985 9.25183C14.3993 9.23941 14.4006 9.21709 14.4014 9.18938L11.0495 9.09361ZM11.0479 9.15983V16.4758H14.4011V9.15983H11.0479ZM12.7245 14.7992H10.7486V18.1524H12.7245V14.7992ZM12.4252 16.4758V14.4141H9.07202V16.4758H12.4252ZM12.4252 14.4141C12.4252 12.8889 11.1871 11.6511 9.66217 11.6511V15.0043C9.33539 15.0043 9.07202 14.7411 9.07202 14.4141H12.4252ZM9.66217 11.6511H8.04281V15.0043H9.66217V11.6511ZM8.04281 11.6511C6.5178 11.6511 5.27983 12.889 5.27983 14.4141H8.63302C8.63302 14.7409 8.3697 15.0043 8.04281 15.0043V11.6511ZM5.27983 14.4141V16.4758H8.63302V14.4141H5.27983ZM6.95643 14.7992H4.98041V18.1524H6.95643V14.7992ZM6.657 16.4758V9.15983H3.30382V16.4758H6.657ZM6.657 9.15983C6.657 9.12694 6.65607 9.09922 6.65516 9.07905C6.65427 9.05946 6.65323 9.04386 6.65282 9.03779C6.6527 9.0361 6.65261 9.03469 6.65255 9.03386C6.65252 9.03343 6.65249 9.03306 6.65248 9.03285C6.65246 9.03258 6.65246 9.03254 6.65245 9.03249C6.65243 9.03213 6.65259 9.03439 6.65278 9.03744C6.65318 9.04346 6.65411 9.05834 6.65485 9.07767L3.3041 9.20532C3.30495 9.22772 3.30606 9.24566 3.30665 9.25472C3.30695 9.2593 3.30721 9.26308 3.30729 9.26424C3.30744 9.26643 3.30732 9.26472 3.30724 9.26349C3.30704 9.26047 3.30619 9.2479 3.30544 9.23138C3.30466 9.21427 3.30382 9.18963 3.30382 9.15983H6.657ZM9.57445 14.7992H8.13058V18.1524H9.57445V14.7992ZM9.80718 16.4758V14.5018H6.45399V16.4758H9.80718ZM8.13058 16.1784H9.57445V12.8252H8.13058V16.1784ZM7.89786 14.5018V16.4758H11.251V14.5018H7.89786ZM28.3658 12.5616H23.6844V15.9148H28.3658V12.5616ZM25.3609 14.2382V11.7555H22.0078V14.2382H25.3609ZM23.6844 13.4321H27.0894V10.0789H23.6844V13.4321ZM25.5983 12.5221L26.8747 15.0048L29.8568 13.4716L28.5804 10.9889L25.5983 12.5221ZM23.9822 22.3617C23.9594 22.3617 23.9389 22.3542 23.9197 22.335C23.9004 22.3157 23.8929 22.2953 23.8929 22.2724H20.5398C20.5398 24.1721 22.0826 25.7149 23.9822 25.7149V22.3617ZM23.8929 22.2724C23.8929 22.2495 23.9004 22.2291 23.9197 22.2099C23.9389 22.1906 23.9594 22.1831 23.9822 22.1831V18.8299C22.0826 18.8299 20.5398 20.3727 20.5398 22.2724H23.8929ZM23.9822 22.1831C24.0051 22.1831 24.0256 22.1906 24.0449 22.2099C24.0641 22.2292 24.0716 22.2496 24.0716 22.2724H27.4248C27.4248 20.3727 25.8818 18.8299 23.9822 18.8299V22.1831ZM24.0716 22.2724C24.0716 22.2953 24.0641 22.3157 24.0449 22.335C24.0256 22.3542 24.0052 22.3617 23.9822 22.3617V25.7149C25.8819 25.7149 27.4248 24.1722 27.4248 22.2724H24.0716ZM28.236 20.009H26.8634V23.3622H28.236V20.009ZM28.5064 21.3515C28.0782 19.2462 26.2167 17.6558 23.9822 17.6558V21.009C24.5883 21.009 25.1032 21.4432 25.2205 22.0197L28.5064 21.3515ZM23.9822 17.6558C21.7478 17.6558 19.8864 19.2463 19.4582 21.3514L22.7441 22.0198C22.8614 21.4431 23.3763 21.009 23.9822 21.009V17.6558ZM21.1011 20.009H18.7299V23.3622H21.1011V20.009ZM20.4065 21.6856V9.70153H17.0533V21.6856H20.4065ZM20.4065 9.70153C20.4065 10.4652 19.7879 11.0837 19.0243 11.0837V7.73057C17.936 7.73057 17.0533 8.61327 17.0533 9.70153H20.4065ZM19.0243 11.0837H25.882V7.73057H19.0243V11.0837ZM24.3909 10.1737L24.9946 11.3479L27.9767 9.81475L27.3731 8.64059L24.3909 10.1737ZM26.4857 8.90473H23.6843V12.2579H26.4857V8.90473ZM23.6843 8.90473C22.1109 8.90473 20.8335 10.1821 20.8335 11.7555H24.1867C24.1867 12.034 23.9628 12.2579 23.6843 12.2579V8.90473ZM20.8335 11.7555V14.2382H24.1867V11.7555H20.8335ZM20.8335 14.2382C20.8335 15.8116 22.1109 17.089 23.6843 17.089V13.7358C23.9628 13.7358 24.1867 13.9597 24.1867 14.2382H20.8335ZM23.6843 17.089H28.8258V13.7358H23.6843V17.089ZM27.1492 15.4124V21.0958H30.5024V15.4124H27.1492ZM27.1492 21.0961C27.1491 20.495 27.6353 20.009 28.236 20.009V23.3622C29.4871 23.3622 30.5026 22.3469 30.5024 21.0955L27.1492 21.0961Z" fill="#0B7F85" mask="url(#path-1-inside-1_90_110)"/>
<path d="M24.4199 16.7305H23.0973C22.7731 16.7305 22.5102 16.9933 22.5102 17.3176C22.5102 17.6418 22.773 17.9047 23.0973 17.9047H24.4199C24.7441 17.9047 25.007 17.6418 25.007 17.3176C25.007 16.9933 24.7441 16.7305 24.4199 16.7305Z" fill="#0B7F85"/>
<path d="M8.85247 11.9127C9.86954 11.9127 10.697 11.0852 10.697 10.0682C10.697 9.05109 9.86954 8.22363 8.85247 8.22363C7.8354 8.22363 7.00793 9.05109 7.00793 10.0682C7.00793 11.0852 7.8354 11.9127 8.85247 11.9127ZM8.85247 9.39773C9.22213 9.39773 9.52284 9.69844 9.52284 10.0681C9.52284 10.4378 9.22213 10.7385 8.85247 10.7385C8.4828 10.7385 8.1821 10.4378 8.1821 10.0681C8.1821 9.69844 8.4828 9.39773 8.85247 9.39773Z" fill="#0B7F85"/>
<path d="M5.35182 22.8593C5.67607 22.8593 5.93893 22.5964 5.93893 22.2722C5.93893 21.9479 5.67607 21.6851 5.35182 21.6851C5.02757 21.6851 4.76471 21.9479 4.76471 22.2722C4.76471 22.5964 5.02757 22.8593 5.35182 22.8593Z" fill="#0B7F85"/>
<path d="M12.7564 22.8593C13.0807 22.8593 13.3435 22.5964 13.3435 22.2722C13.3435 21.9479 13.0807 21.6851 12.7564 21.6851C12.4322 21.6851 12.1693 21.9479 12.1693 22.2722C12.1693 22.5964 12.4322 22.8593 12.7564 22.8593Z" fill="#0B7F85"/>
<path d="M23.9823 22.8593C24.3065 22.8593 24.5694 22.5964 24.5694 22.2722C24.5694 21.9479 24.3065 21.6851 23.9823 21.6851C23.658 21.6851 23.3951 21.9479 23.3951 22.2722C23.3951 22.5964 23.658 22.8593 23.9823 22.8593Z" fill="#0B7F85"/>
</g>
<defs>
<clipPath id="clip0_90_110">
<rect width="30" height="30" fill="white"/>
</clipPath>
</defs>
</svg>
