<svg width="30" height="30" viewBox="0 0 30 30" fill="none" xmlns="http://www.w3.org/2000/svg">
<path d="M26.8876 2.5H26.2501C25.587 2.5 24.9511 2.76339 24.4823 3.23223C24.0135 3.70107 23.7501 4.33696 23.7501 5V6.25H16.8751C16.7093 6.25 16.5503 6.31585 16.4331 6.43306C16.3159 6.55027 16.2501 6.70924 16.2501 6.875V7.5H8.43757C8.27181 7.5 8.11284 7.56585 7.99563 7.68306C7.87842 7.80027 7.81257 7.95924 7.81257 8.125V12.5H3.75007C3.58431 12.5 3.42534 12.5658 3.30813 12.6831C3.19092 12.8003 3.12507 12.9592 3.12507 13.125V22.5H3.02507C2.53653 22.5195 2.07558 22.7317 1.74298 23.09C1.41038 23.4484 1.23316 23.9239 1.25007 24.4125C1.25007 24.8998 1.44366 25.3672 1.78826 25.7118C2.13286 26.0564 2.60023 26.25 3.08757 26.25H5.00007C5.28799 26.6427 5.66437 26.962 6.09871 27.1821C6.53305 27.4023 7.01314 27.517 7.50007 27.517C7.987 27.517 8.46709 27.4023 8.90143 27.1821C9.33577 26.962 9.71215 26.6427 10.0001 26.25H18.4876C18.7755 26.6427 19.1519 26.962 19.5862 27.1821C20.0206 27.4023 20.5006 27.517 20.9876 27.517C21.4745 27.517 21.9546 27.4023 22.3889 27.1821C22.8233 26.962 23.1997 26.6427 23.4876 26.25H26.8751C27.0408 26.25 27.1998 26.1842 27.317 26.0669C27.4342 25.9497 27.5001 25.7908 27.5001 25.625V6.15C27.8678 6.01805 28.1855 5.77525 28.4094 5.45509C28.6333 5.13493 28.7523 4.75318 28.7501 4.3625C28.7501 3.86853 28.5538 3.3948 28.2046 3.04551C27.8553 2.69623 27.3815 2.5 26.8876 2.5ZM23.4501 22.5C23.1621 22.1073 22.7858 21.788 22.3514 21.5679C21.9171 21.3477 21.437 21.233 20.9501 21.233C20.4631 21.233 19.9831 21.3477 19.5487 21.5679C19.1144 21.788 18.738 22.1073 18.4501 22.5H14.3751V15H23.7501V22.5H23.4501ZM17.5001 7.5H23.7501V13.75H17.5001V7.5ZM9.06257 8.75H16.2501V13.75H14.3751V13.125C14.3751 12.9592 14.3092 12.8003 14.192 12.6831C14.0748 12.5658 13.9158 12.5 13.7501 12.5H9.06257V8.75ZM4.37507 13.75H13.1251V22.5H10.0001C9.71215 22.1073 9.33577 21.788 8.90143 21.5679C8.46709 21.3477 7.987 21.233 7.50007 21.233C7.01314 21.233 6.53305 21.3477 6.09871 21.5679C5.66437 21.788 5.28799 22.1073 5.00007 22.5H4.37507V13.75ZM3.12507 25C2.96985 24.9985 2.82155 24.9355 2.71257 24.825C2.64414 24.7638 2.58973 24.6886 2.55306 24.6045C2.51638 24.5203 2.49831 24.4293 2.50007 24.3375C2.50004 24.1838 2.56021 24.0363 2.6677 23.9264C2.77519 23.8166 2.92143 23.7533 3.07507 23.75H4.43757C4.35637 24.1627 4.35637 24.5873 4.43757 25H3.12507ZM7.50007 26.25C7.0048 26.2435 6.53164 26.0439 6.18141 25.6937C5.83117 25.3434 5.63155 24.8703 5.62507 24.375C5.62507 23.8777 5.82261 23.4008 6.17425 23.0492C6.52588 22.6975 7.00279 22.5 7.50007 22.5C7.99735 22.5 8.47427 22.6975 8.8259 23.0492C9.17753 23.4008 9.37507 23.8777 9.37507 24.375C9.37179 24.8713 9.1732 25.3463 8.82228 25.6972C8.47135 26.0481 7.99634 26.2467 7.50007 26.25ZM10.5626 25C10.6438 24.5873 10.6438 24.1627 10.5626 23.75H17.9001C17.8601 23.956 17.8391 24.1652 17.8376 24.375C17.8428 24.5846 17.8637 24.7935 17.9001 25H10.5626ZM20.9626 26.25C20.4663 26.2467 19.9913 26.0481 19.6404 25.6972C19.2894 25.3463 19.0908 24.8713 19.0876 24.375C19.0876 23.8777 19.2851 23.4008 19.6367 23.0492C19.9884 22.6975 20.4653 22.5 20.9626 22.5C21.4599 22.5 21.9368 22.6975 22.2884 23.0492C22.64 23.4008 22.8376 23.8777 22.8376 24.375C22.8343 24.8713 22.6357 25.3463 22.2848 25.6972C21.9339 26.0481 21.4588 26.2467 20.9626 26.25ZM26.2501 25H24.0251C24.0653 24.7941 24.0862 24.5848 24.0876 24.375C24.0823 24.1654 24.0614 23.9565 24.0251 23.75H26.2501V25ZM26.8751 5C26.7093 5 26.5503 5.06585 26.4331 5.18306C26.3159 5.30027 26.2501 5.45924 26.2501 5.625V22.5H25.0001V5C25.0001 4.66848 25.1318 4.35054 25.3662 4.11612C25.6006 3.8817 25.9186 3.75 26.2501 3.75H26.8876C27.0533 3.75 27.2123 3.81585 27.3295 3.93306C27.4467 4.05027 27.5126 4.20924 27.5126 4.375C27.5126 4.54076 27.4467 4.69973 27.3295 4.81694C27.2123 4.93415 27.0533 5 26.8876 5H26.8751Z" fill="#0B7F85"/>
<path d="M7.50006 18.7495H10.0001C10.4973 18.7495 10.9743 18.552 11.3259 18.2003C11.6775 17.8487 11.8751 17.3718 11.8751 16.8745C11.8751 16.3772 11.6775 15.9003 11.3259 15.5487C10.9743 15.1971 10.4973 14.9995 10.0001 14.9995H7.50006C7.00278 14.9995 6.52587 15.1971 6.17424 15.5487C5.8226 15.9003 5.62506 16.3772 5.62506 16.8745C5.62506 17.3718 5.8226 17.8487 6.17424 18.2003C6.52587 18.552 7.00278 18.7495 7.50006 18.7495ZM7.50006 16.2495H10.0001C10.1658 16.2495 10.3248 16.3154 10.442 16.4326C10.5592 16.5498 10.6251 16.7088 10.6251 16.8745C10.6251 17.0403 10.5592 17.1992 10.442 17.3165C10.3248 17.4337 10.1658 17.4995 10.0001 17.4995H7.50006C7.3343 17.4995 7.17533 17.4337 7.05812 17.3165C6.94091 17.1992 6.87506 17.0403 6.87506 16.8745C6.87506 16.7088 6.94091 16.5498 7.05812 16.4326C7.17533 16.3154 7.3343 16.2495 7.50006 16.2495Z" fill="#0B7F85"/>
<path d="M20.3125 16.25H17.8125C17.3152 16.25 16.8383 16.4475 16.4867 16.7992C16.135 17.1508 15.9375 17.6277 15.9375 18.125C15.9375 18.6223 16.135 19.0992 16.4867 19.4508C16.8383 19.8025 17.3152 20 17.8125 20H20.3125C20.8098 20 21.2867 19.8025 21.6383 19.4508C21.99 19.0992 22.1875 18.6223 22.1875 18.125C22.1875 17.6277 21.99 17.1508 21.6383 16.7992C21.2867 16.4475 20.8098 16.25 20.3125 16.25ZM20.3125 18.75H17.8125C17.6467 18.75 17.4878 18.6842 17.3706 18.5669C17.2533 18.4497 17.1875 18.2908 17.1875 18.125C17.1875 17.9592 17.2533 17.8003 17.3706 17.6831C17.4878 17.5658 17.6467 17.5 17.8125 17.5H20.3125C20.4783 17.5 20.6372 17.5658 20.7544 17.6831C20.8717 17.8003 20.9375 17.9592 20.9375 18.125C20.9375 18.2908 20.8717 18.4497 20.7544 18.5669C20.6372 18.6842 20.4783 18.75 20.3125 18.75Z" fill="#0B7F85"/>
<path d="M20 10.0005H21.25C21.4158 10.0005 21.5747 9.93464 21.6919 9.81743C21.8092 9.70022 21.875 9.54125 21.875 9.37549C21.875 9.20973 21.8092 9.05076 21.6919 8.93355C21.5747 8.81634 21.4158 8.75049 21.25 8.75049H20C19.8342 8.75049 19.6753 8.81634 19.5581 8.93355C19.4408 9.05076 19.375 9.20973 19.375 9.37549C19.375 9.54125 19.4408 9.70022 19.5581 9.81743C19.6753 9.93464 19.8342 10.0005 20 10.0005Z" fill="#0B7F85"/>
<path d="M7.50006 23.4375C7.3343 23.4375 7.17533 23.5033 7.05812 23.6206C6.94091 23.7378 6.87506 23.8967 6.87506 24.0625V24.6875C6.87506 24.8533 6.94091 25.0122 7.05812 25.1294C7.17533 25.2467 7.3343 25.3125 7.50006 25.3125C7.66582 25.3125 7.82479 25.2467 7.942 25.1294C8.05921 25.0122 8.12506 24.8533 8.12506 24.6875V24.0625C8.12506 23.8967 8.05921 23.7378 7.942 23.6206C7.82479 23.5033 7.66582 23.4375 7.50006 23.4375Z" fill="#0B7F85"/>
<path d="M20.9626 23.4375C20.7968 23.4375 20.6379 23.5033 20.5206 23.6206C20.4034 23.7378 20.3376 23.8967 20.3376 24.0625V24.6875C20.3376 24.8533 20.4034 25.0122 20.5206 25.1294C20.6379 25.2467 20.7968 25.3125 20.9626 25.3125C21.1283 25.3125 21.2873 25.2467 21.4045 25.1294C21.5217 25.0122 21.5876 24.8533 21.5876 24.6875V24.0625C21.5876 23.8967 21.5217 23.7378 21.4045 23.6206C21.2873 23.5033 21.1283 23.4375 20.9626 23.4375Z" fill="#0B7F85"/>
<path d="M15.0001 10.625C15.0001 10.4592 14.9342 10.3003 14.817 10.1831C14.6998 10.0658 14.5408 10 14.3751 10H11.8751C11.7093 10 11.5503 10.0658 11.4331 10.1831C11.3159 10.3003 11.2501 10.4592 11.2501 10.625C11.2501 10.7908 11.3159 10.9497 11.4331 11.0669C11.5503 11.1842 11.7093 11.25 11.8751 11.25H14.3751C14.5408 11.25 14.6998 11.1842 14.817 11.0669C14.9342 10.9497 15.0001 10.7908 15.0001 10.625Z" fill="#0B7F85"/>
</svg>
