<svg width="30" height="30" viewBox="0 0 30 30" fill="none" xmlns="http://www.w3.org/2000/svg">
<g clip-path="url(#clip0_91_160)">
<path d="M29.0039 6.4043L15.3012 0.0703125C15.0984 -0.0234375 14.8647 -0.0234375 14.6619 0.0703125L0.996094 6.38672C0.726445 6.51123 0.55377 6.78111 0.553711 7.07812V22.9219C0.55377 23.2189 0.726445 23.4888 0.996094 23.6133L14.6619 29.9297C14.8647 30.0234 15.0984 30.0234 15.3012 29.9297L29.0039 23.5969C29.2736 23.4724 29.4462 23.2025 29.4463 22.9055V7.0957C29.4462 6.79869 29.2736 6.52881 29.0039 6.4043ZM14.9812 1.60078L26.8477 7.08516L22.4695 9.1084L10.6025 3.62461L14.9812 1.60078ZM14.2201 28.0471L2.07539 22.435V8.28281L14.2201 13.8949V28.0471ZM14.9812 12.5684L3.11484 7.08457L8.78906 4.46367L20.6561 9.94746L14.9812 12.5684ZM27.9246 22.418L15.743 28.0471V13.8949L21.699 11.141V15C21.699 15.4207 22.04 15.7617 22.4607 15.7617C22.8814 15.7617 23.2225 15.4207 23.2225 15V10.4385L27.9246 8.26582V22.418Z" fill="#0B7F85"/>
</g>
<defs>
<clipPath id="clip0_91_160">
<rect width="30" height="30" fill="white"/>
</clipPath>
</defs>
</svg>
