<svg width="31" height="30" viewBox="0 0 31 30" fill="none" xmlns="http://www.w3.org/2000/svg">
<path d="M27.1 26.6993H23.8959C24.6205 26.2733 24.9633 25.4222 24.7086 24.654L23.7868 21.8716L24.8617 21.5154C25.1832 21.4092 25.4441 21.1838 25.5961 20.8812C25.7481 20.5785 25.7731 20.2349 25.6664 19.9136L24.7027 17.0042C24.4828 16.3405 23.7632 15.9804 23.1007 16.1995L22.0257 16.5556L21.1191 13.8188C20.8597 13.0366 20.0539 12.5506 19.2003 12.6655L19.1002 12.6789C19.41 12.4211 19.6354 12.0615 19.7187 11.6446L19.8921 10.7778C19.9155 10.6602 19.8851 10.5383 19.8093 10.4458C19.7331 10.353 19.6198 10.2993 19.4999 10.2993H5.10003C4.98013 10.2993 4.86683 10.353 4.79063 10.4458C4.71483 10.5384 4.68443 10.6603 4.70783 10.7778L4.88123 11.6444C4.99793 12.2287 5.39523 12.6962 5.91243 12.9317L6.67713 26.6993H3.90003C3.67893 26.6993 3.50003 26.8784 3.50003 27.0993C3.50003 27.3202 3.67893 27.4993 3.90003 27.4993H27.1C27.3211 27.4993 27.5 27.3202 27.5 27.0993C27.5 26.8784 27.3211 26.6993 27.1 26.6993ZM18.5709 15.0308L22.4364 26.6994H17.9226L18.5709 15.0308ZM23.3523 16.9589C23.5972 16.8775 23.8625 17.0112 23.9433 17.2558L24.907 20.1654C24.9465 20.2838 24.9371 20.4105 24.8812 20.522C24.825 20.6335 24.7289 20.7167 24.6101 20.756L23.5352 21.1122L22.2773 17.315L23.3523 16.9589ZM19.3066 13.4585C19.7781 13.3958 20.2211 13.6524 20.3597 14.0704L23.9492 24.9056C24.0875 25.3234 23.8859 25.7943 23.4695 26.0253L23.1203 26.2192L18.9105 13.5116L19.3066 13.4585ZM5.66563 11.4876L5.58793 11.0993H19.0121L18.9344 11.4878C18.8403 11.9579 18.4242 12.2993 17.9446 12.2993H6.65553C6.17583 12.2993 5.75983 11.9579 5.66563 11.4876ZM6.72273 13.0993H17.8774L17.1218 26.6993H15.5V17.8993C15.5 17.2376 14.9617 16.6993 14.3 16.6993C13.6383 16.6993 13.1 17.2376 13.1 17.8993V26.6993H11.5V17.8993C11.5 17.2376 10.9617 16.6993 10.3 16.6993C9.63833 16.6993 9.10003 17.2376 9.10003 17.8993V26.6993H7.47803L6.72273 13.0993ZM14.7 26.6993H13.9V17.8993C13.9 17.6788 14.0793 17.4993 14.3 17.4993C14.5207 17.4993 14.7 17.6788 14.7 17.8993V26.6993ZM10.7 26.6993H9.90003V17.8993C9.90003 17.6788 10.0793 17.4993 10.3 17.4993C10.5207 17.4993 10.7 17.6788 10.7 17.8993V26.6993Z" fill="#0B7F85" stroke="#0B7F85" stroke-width="0.419148"/>
<path d="M11.9504 9.43836C12.1711 9.61496 12.4356 9.70316 12.7 9.70316C12.9644 9.70316 13.2289 9.61486 13.4496 9.43856L13.45 9.43836L15.4164 7.86536C15.8894 7.48626 16.0324 6.82087 15.7484 6.31747C15.5738 6.00707 15.275 5.79066 14.9285 5.72356C14.5836 5.65616 14.2258 5.74386 13.95 5.96456L13.9 6.00456V3.70147C13.9 3.03977 13.3617 2.50146 12.7 2.50146C12.0383 2.50146 11.5 3.03977 11.5 3.70147V6.00476L11.4914 5.99797C11.2269 5.78666 10.8824 5.68856 10.5387 5.73036C10.2176 5.76906 9.93673 5.92566 9.74813 6.17076C9.58593 6.38186 9.50003 6.63426 9.50003 6.90086C9.50003 7.26746 9.66413 7.60926 9.95003 7.83836L11.9504 9.43836ZM10.3824 6.65846C10.4586 6.55926 10.5734 6.53186 10.6347 6.52446C10.6538 6.52216 10.6734 6.52096 10.6925 6.52096C10.8015 6.52096 10.9097 6.55726 10.9913 6.62256L11.6499 7.14956C11.7698 7.24546 11.9335 7.26436 12.0733 7.19776C12.2116 7.13116 12.2999 6.99096 12.2999 6.83726V3.70147C12.2999 3.48096 12.4792 3.30146 12.6999 3.30146C12.9206 3.30146 13.0999 3.48096 13.0999 3.70147V6.83716C13.0999 6.99086 13.1882 7.13106 13.3269 7.19766C13.4648 7.26446 13.63 7.24556 13.7499 7.14946L14.4499 6.58906C14.5417 6.51546 14.662 6.48676 14.7761 6.50876C14.8933 6.53146 14.9909 6.60286 15.0515 6.71016C15.1437 6.87326 15.0839 7.10626 14.9163 7.24066L12.9503 8.81356C12.8026 8.93156 12.5972 8.93136 12.4503 8.81376L10.45 7.21396C10.3547 7.13736 10.3 7.02336 10.3 6.90086C10.3 6.83916 10.3145 6.74696 10.3824 6.65846Z" fill="#0B7F85" stroke="#0B7F85" stroke-width="0.419148"/>
</svg>
