<svg width="30" height="30" viewBox="0 0 30 30" fill="none" xmlns="http://www.w3.org/2000/svg">
<mask id="path-1-inside-1_90_139" fill="white">
<path fill-rule="evenodd" clip-rule="evenodd" d="M4.37503 1.875C3.34003 1.875 2.50003 2.715 2.50003 3.75V7.5C2.50003 8.535 3.34003 9.375 4.37503 9.375V15.625C4.37503 15.97 4.65503 16.25 5.00003 16.25C5.34503 16.25 5.62503 15.97 5.62503 15.625V9.375H8.12503V15.625C8.12503 15.97 8.40503 16.25 8.75003 16.25C9.09503 16.25 9.37503 15.97 9.37503 15.625V9.375C10.41 9.375 11.25 8.535 11.25 7.5V3.75C11.25 2.715 10.41 1.875 9.37503 1.875C8.34003 1.875 7.50003 2.715 7.50003 3.75V4.375C7.50003 4.72 7.22003 5 6.87503 5C6.53003 5 6.25003 4.72 6.25003 4.375V3.75C6.25003 2.715 5.41003 1.875 4.37503 1.875ZM20.625 1.875C19.59 1.875 18.75 2.715 18.75 3.75V7.5C18.75 8.535 19.59 9.375 20.625 9.375V15.625C20.625 15.97 20.905 16.25 21.25 16.25C21.595 16.25 21.875 15.97 21.875 15.625V9.375H24.375V15.625C24.375 15.97 24.655 16.25 25 16.25C25.345 16.25 25.625 15.97 25.625 15.625V9.375C26.66 9.375 27.5 8.535 27.5 7.5V3.75C27.5 2.715 26.66 1.875 25.625 1.875C24.59 1.875 23.75 2.715 23.75 3.75V4.375C23.75 4.72 23.47 5 23.125 5C22.78 5 22.5 4.72 22.5 4.375V3.75C22.5 2.715 21.66 1.875 20.625 1.875ZM4.37503 3.125C4.72003 3.125 5.00003 3.405 5.00003 3.75V4.375C5.00003 5.41 5.84003 6.25 6.87503 6.25C7.91003 6.25 8.75003 5.41 8.75003 4.375V3.75C8.75003 3.405 9.03003 3.125 9.37503 3.125C9.72003 3.125 10 3.405 10 3.75V7.5C10 7.845 9.72003 8.125 9.37503 8.125H4.37503C4.03003 8.125 3.75003 7.845 3.75003 7.5V3.75C3.75003 3.405 4.03003 3.125 4.37503 3.125ZM20.625 3.125C20.97 3.125 21.25 3.405 21.25 3.75V4.375C21.25 5.41 22.09 6.25 23.125 6.25C24.16 6.25 25 5.41 25 4.375V3.75C25 3.405 25.28 3.125 25.625 3.125C25.97 3.125 26.25 3.405 26.25 3.75V7.5C26.25 7.845 25.97 8.125 25.625 8.125H20.625C20.28 8.125 20 7.845 20 7.5V3.75C20 3.405 20.28 3.125 20.625 3.125ZM3.75003 17.5C2.71441 17.5 1.87503 18.3394 1.87503 19.375V27.5C1.87503 27.845 2.15503 28.125 2.50003 28.125H27.5C27.845 28.125 28.125 27.845 28.125 27.5V19.375C28.125 18.3394 27.2857 17.5 26.25 17.5H19.6875C18.8244 17.5 18.125 18.1994 18.125 19.0625C18.125 19.235 17.985 19.375 17.8125 19.375H12.1875C12.015 19.375 11.875 19.0625 11.875 19.0625C11.875 18.1994 11.1757 17.5 10.3125 17.5H3.75003ZM3.75003 18.75H10.3125C10.485 18.75 10.625 18.89 10.625 19.0625C10.625 20 11.3244 20.625 12.1875 20.625H17.8125C18.6757 20.625 19.375 19.9256 19.375 19.0625C19.375 18.89 19.515 18.75 19.6875 18.75H26.25C26.595 18.75 26.875 19.03 26.875 19.375V26.875H23.75V25C23.75 23.965 22.91 23.125 21.875 23.125C20.84 23.125 20 23.965 20 25V26.875H16.875V25C16.875 23.965 16.035 23.125 15 23.125C13.965 23.125 13.125 23.965 13.125 25V26.875H10V25C10 23.965 9.16003 23.125 8.12503 23.125C7.09003 23.125 6.25003 23.965 6.25003 25V26.875H3.12503V19.375C3.12503 19.03 3.40503 18.75 3.75003 18.75ZM8.12503 24.375C8.47003 24.375 8.75003 24.655 8.75003 25V26.875H7.50003V25C7.50003 24.655 7.78003 24.375 8.12503 24.375ZM15 24.375C15.345 24.375 15.625 24.655 15.625 25V26.875H14.375V25C14.375 24.655 14.655 24.375 15 24.375ZM21.875 24.375C22.22 24.375 22.5 24.655 22.5 25V26.875H21.25V25C21.25 24.655 21.53 24.375 21.875 24.375Z"/>
</mask>
<path fill-rule="evenodd" clip-rule="evenodd" d="M4.37503 1.875C3.34003 1.875 2.50003 2.715 2.50003 3.75V7.5C2.50003 8.535 3.34003 9.375 4.37503 9.375V15.625C4.37503 15.97 4.65503 16.25 5.00003 16.25C5.34503 16.25 5.62503 15.97 5.62503 15.625V9.375H8.12503V15.625C8.12503 15.97 8.40503 16.25 8.75003 16.25C9.09503 16.25 9.37503 15.97 9.37503 15.625V9.375C10.41 9.375 11.25 8.535 11.25 7.5V3.75C11.25 2.715 10.41 1.875 9.37503 1.875C8.34003 1.875 7.50003 2.715 7.50003 3.75V4.375C7.50003 4.72 7.22003 5 6.87503 5C6.53003 5 6.25003 4.72 6.25003 4.375V3.75C6.25003 2.715 5.41003 1.875 4.37503 1.875ZM20.625 1.875C19.59 1.875 18.75 2.715 18.75 3.75V7.5C18.75 8.535 19.59 9.375 20.625 9.375V15.625C20.625 15.97 20.905 16.25 21.25 16.25C21.595 16.25 21.875 15.97 21.875 15.625V9.375H24.375V15.625C24.375 15.97 24.655 16.25 25 16.25C25.345 16.25 25.625 15.97 25.625 15.625V9.375C26.66 9.375 27.5 8.535 27.5 7.5V3.75C27.5 2.715 26.66 1.875 25.625 1.875C24.59 1.875 23.75 2.715 23.75 3.75V4.375C23.75 4.72 23.47 5 23.125 5C22.78 5 22.5 4.72 22.5 4.375V3.75C22.5 2.715 21.66 1.875 20.625 1.875ZM4.37503 3.125C4.72003 3.125 5.00003 3.405 5.00003 3.75V4.375C5.00003 5.41 5.84003 6.25 6.87503 6.25C7.91003 6.25 8.75003 5.41 8.75003 4.375V3.75C8.75003 3.405 9.03003 3.125 9.37503 3.125C9.72003 3.125 10 3.405 10 3.75V7.5C10 7.845 9.72003 8.125 9.37503 8.125H4.37503C4.03003 8.125 3.75003 7.845 3.75003 7.5V3.75C3.75003 3.405 4.03003 3.125 4.37503 3.125ZM20.625 3.125C20.97 3.125 21.25 3.405 21.25 3.75V4.375C21.25 5.41 22.09 6.25 23.125 6.25C24.16 6.25 25 5.41 25 4.375V3.75C25 3.405 25.28 3.125 25.625 3.125C25.97 3.125 26.25 3.405 26.25 3.75V7.5C26.25 7.845 25.97 8.125 25.625 8.125H20.625C20.28 8.125 20 7.845 20 7.5V3.75C20 3.405 20.28 3.125 20.625 3.125ZM3.75003 17.5C2.71441 17.5 1.87503 18.3394 1.87503 19.375V27.5C1.87503 27.845 2.15503 28.125 2.50003 28.125H27.5C27.845 28.125 28.125 27.845 28.125 27.5V19.375C28.125 18.3394 27.2857 17.5 26.25 17.5H19.6875C18.8244 17.5 18.125 18.1994 18.125 19.0625C18.125 19.235 17.985 19.375 17.8125 19.375H12.1875C12.015 19.375 11.875 19.0625 11.875 19.0625C11.875 18.1994 11.1757 17.5 10.3125 17.5H3.75003ZM3.75003 18.75H10.3125C10.485 18.75 10.625 18.89 10.625 19.0625C10.625 20 11.3244 20.625 12.1875 20.625H17.8125C18.6757 20.625 19.375 19.9256 19.375 19.0625C19.375 18.89 19.515 18.75 19.6875 18.75H26.25C26.595 18.75 26.875 19.03 26.875 19.375V26.875H23.75V25C23.75 23.965 22.91 23.125 21.875 23.125C20.84 23.125 20 23.965 20 25V26.875H16.875V25C16.875 23.965 16.035 23.125 15 23.125C13.965 23.125 13.125 23.965 13.125 25V26.875H10V25C10 23.965 9.16003 23.125 8.12503 23.125C7.09003 23.125 6.25003 23.965 6.25003 25V26.875H3.12503V19.375C3.12503 19.03 3.40503 18.75 3.75003 18.75ZM8.12503 24.375C8.47003 24.375 8.75003 24.655 8.75003 25V26.875H7.50003V25C7.50003 24.655 7.78003 24.375 8.12503 24.375ZM15 24.375C15.345 24.375 15.625 24.655 15.625 25V26.875H14.375V25C14.375 24.655 14.655 24.375 15 24.375ZM21.875 24.375C22.22 24.375 22.5 24.655 22.5 25V26.875H21.25V25C21.25 24.655 21.53 24.375 21.875 24.375Z" fill="#0B7F85" stroke="#0B7F85" stroke-width="1.67659" mask="url(#path-1-inside-1_90_139)"/>
</svg>
